G75*
%MOIN*%
%OFA0B0*%
%FSLAX25Y25*%
%IPPOS*%
%LPD*%
%AMOC8*
5,1,8,0,0,1.08239X$1,22.5*
%
%ADD10C,0.00000*%
%ADD11C,0.06000*%
%ADD12C,0.08600*%
%ADD13R,0.05118X0.05906*%
%ADD14R,0.05906X0.05118*%
%ADD15R,0.05700X0.05500*%
%ADD16R,0.05512X0.03937*%
%ADD17R,0.09449X0.09449*%
%ADD18R,0.01378X0.01969*%
%ADD19C,0.05709*%
%ADD20C,0.06000*%
%ADD21R,0.07087X0.05512*%
%ADD22R,0.04724X0.02165*%
%ADD23R,0.16000X0.06000*%
%ADD24C,0.01575*%
%ADD25C,0.03562*%
%ADD26C,0.00984*%
%ADD27C,0.01200*%
%ADD28C,0.01600*%
%ADD29C,0.00600*%
%ADD30C,0.02400*%
%ADD31C,0.02000*%
%ADD32C,0.12661*%
D10*
X0049225Y0058865D02*
X0046667Y0063028D01*
X0045489Y0065136D01*
X0044414Y0067269D01*
X0043340Y0069403D01*
X0042369Y0071562D01*
X0041504Y0073747D01*
X0040639Y0075932D01*
X0039879Y0078143D01*
X0039227Y0080380D01*
X0038575Y0082617D01*
X0038032Y0084880D01*
X0037164Y0089457D01*
X0036840Y0091771D01*
X0036628Y0094111D01*
X0036417Y0096452D01*
X0036317Y0098818D01*
X0036332Y0101210D01*
X0036356Y0105023D01*
X0036380Y0108837D01*
X0036451Y0120278D01*
X0036475Y0124091D01*
X0036523Y0131719D01*
X0036547Y0135532D01*
X0036594Y0143159D01*
X0036618Y0146973D01*
X0036690Y0158414D01*
X0036713Y0162227D01*
X0036722Y0163669D01*
X0036796Y0165129D01*
X0036929Y0166605D01*
X0037062Y0168081D01*
X0037256Y0169574D01*
X0037755Y0172588D01*
X0038061Y0174109D01*
X0038418Y0175642D01*
X0038776Y0177176D01*
X0038775Y0177166D02*
X0038771Y0177166D01*
X0038775Y0177166D02*
X0039183Y0178717D01*
X0039186Y0178721D02*
X0039644Y0180277D01*
X0040101Y0181833D01*
X0040607Y0183399D01*
X0041157Y0184973D01*
X0041706Y0186547D01*
X0042300Y0188130D01*
X0042934Y0189718D01*
X0043567Y0191306D01*
X0044241Y0192900D01*
X0044950Y0194499D01*
X0045659Y0196097D01*
X0046405Y0197699D01*
X0047181Y0199303D01*
X0047958Y0200907D01*
X0048767Y0202513D01*
X0049604Y0204119D01*
X0050440Y0205725D01*
X0051305Y0207331D01*
X0052192Y0208934D01*
X0053080Y0210537D01*
X0053992Y0212139D01*
X0054923Y0213735D01*
X0055855Y0215332D01*
X0056806Y0216925D01*
X0057772Y0218511D01*
X0058739Y0220097D01*
X0059721Y0221677D01*
X0060715Y0223248D01*
X0061709Y0224820D01*
X0062714Y0226383D01*
X0063727Y0227935D01*
X0064740Y0229487D01*
X0065760Y0231029D01*
X0066784Y0232558D01*
X0067808Y0234088D01*
X0068835Y0235604D01*
X0069862Y0237106D01*
X0070890Y0238611D01*
X0071935Y0240120D01*
X0074055Y0243149D01*
X0075129Y0244669D01*
X0076216Y0246195D01*
X0077303Y0247721D01*
X0078402Y0249253D01*
X0079511Y0250791D01*
X0080620Y0252329D01*
X0081739Y0253872D01*
X0082866Y0255422D01*
X0083992Y0256972D01*
X0085126Y0258529D01*
X0086265Y0260092D01*
X0087405Y0261655D01*
X0088549Y0263224D01*
X0089696Y0264801D01*
X0090844Y0266377D01*
X0091994Y0267960D01*
X0094295Y0271141D01*
X0095446Y0272739D01*
X0096595Y0274344D01*
X0097744Y0275949D01*
X0098891Y0277561D01*
X0100033Y0279181D01*
X0101176Y0280801D01*
X0102314Y0282429D01*
X0103446Y0284065D01*
X0104578Y0285701D01*
X0105703Y0287345D01*
X0106819Y0288997D01*
X0107935Y0290649D01*
X0109041Y0292309D01*
X0110137Y0293978D01*
X0111232Y0295647D01*
X0112316Y0297324D01*
X0113386Y0299010D01*
X0114456Y0300696D01*
X0115512Y0302391D01*
X0116552Y0304096D01*
X0117592Y0305800D01*
X0118616Y0307513D01*
X0119621Y0309235D01*
X0120627Y0310958D01*
X0121613Y0312690D01*
X0123545Y0316173D01*
X0124502Y0317901D01*
X0126391Y0321334D01*
X0127323Y0323040D01*
X0128239Y0324738D01*
X0129155Y0326436D01*
X0130055Y0328126D01*
X0131816Y0331497D01*
X0132676Y0333178D01*
X0133513Y0334857D01*
X0134350Y0336537D01*
X0135163Y0338214D01*
X0135950Y0339893D01*
X0136736Y0341572D01*
X0137495Y0343253D01*
X0138951Y0346623D01*
X0139648Y0348312D01*
X0140311Y0350010D01*
X0140974Y0351707D01*
X0141602Y0353412D01*
X0142192Y0355127D01*
X0142782Y0356843D01*
X0143333Y0358569D01*
X0144352Y0362049D01*
X0144820Y0363803D01*
X0145242Y0365574D01*
X0145664Y0367344D01*
X0146040Y0369132D01*
X0146694Y0372747D01*
X0146972Y0374574D01*
X0147196Y0376425D01*
X0147421Y0378276D01*
X0147592Y0380149D01*
X0147707Y0382049D01*
X0147821Y0383949D01*
X0147879Y0385875D01*
X0147877Y0387830D01*
X0147874Y0389785D01*
X0147811Y0391769D01*
X0147684Y0393786D01*
X0147557Y0395802D01*
X0147366Y0397851D01*
X0147107Y0399936D01*
X0149131Y0398453D01*
X0151591Y0396761D01*
X0154411Y0394854D01*
X0157231Y0392947D01*
X0160410Y0390825D01*
X0163874Y0388481D01*
X0167337Y0386137D01*
X0171083Y0383571D01*
X0175037Y0380777D01*
X0178991Y0377984D01*
X0183152Y0374961D01*
X0187443Y0371705D01*
X0191734Y0368448D01*
X0196156Y0364956D01*
X0200632Y0361224D01*
X0205108Y0357491D01*
X0209638Y0353517D01*
X0214146Y0349295D01*
X0218654Y0345074D01*
X0223140Y0340605D01*
X0227527Y0335881D01*
X0231914Y0331158D01*
X0236203Y0326180D01*
X0240316Y0320942D01*
X0244429Y0315704D01*
X0248368Y0310205D01*
X0255741Y0298673D01*
X0259176Y0292639D01*
X0265391Y0280026D01*
X0268170Y0273445D01*
X0272920Y0259724D01*
X0274890Y0252583D01*
X0277870Y0237729D01*
X0278879Y0230015D01*
X0279783Y0214001D01*
X0279678Y0205701D01*
X0278939Y0197101D01*
X0278200Y0188501D01*
X0276827Y0179602D01*
X0274744Y0170396D01*
X0272662Y0161191D01*
X0269869Y0151680D01*
X0266290Y0141856D01*
X0265184Y0138821D01*
X0264191Y0135982D01*
X0263308Y0133329D01*
X0262425Y0130677D01*
X0261653Y0128213D01*
X0260323Y0123642D01*
X0259767Y0121536D01*
X0258865Y0117666D01*
X0258520Y0115903D01*
X0258279Y0114304D01*
X0258037Y0112704D01*
X0257900Y0111268D01*
X0257863Y0109988D01*
X0257827Y0108708D01*
X0257892Y0107583D01*
X0258056Y0106606D01*
X0258220Y0105629D01*
X0258484Y0104800D01*
X0258844Y0104111D01*
X0259205Y0103421D01*
X0259662Y0102872D01*
X0260214Y0102454D01*
X0260766Y0102037D01*
X0261413Y0101752D01*
X0262892Y0101429D01*
X0263725Y0101391D01*
X0264647Y0101470D01*
X0265570Y0101549D01*
X0266582Y0101744D01*
X0268784Y0102350D01*
X0269974Y0102761D01*
X0272524Y0103785D01*
X0273885Y0104397D01*
X0275330Y0105101D01*
X0276775Y0105806D01*
X0278303Y0106603D01*
X0279914Y0107484D01*
X0281524Y0108366D01*
X0283215Y0109332D01*
X0286758Y0111417D01*
X0288608Y0112537D01*
X0290535Y0113725D01*
X0289087Y0108846D01*
X0287539Y0104197D01*
X0285898Y0099764D01*
X0284257Y0095332D01*
X0282524Y0091117D01*
X0278886Y0083098D01*
X0276981Y0079293D01*
X0274998Y0075682D01*
X0273015Y0072070D01*
X0270953Y0068652D01*
X0268819Y0065414D01*
X0266685Y0062177D01*
X0264480Y0059120D01*
X0262210Y0056233D01*
X0259940Y0053346D01*
X0257605Y0050627D01*
X0255212Y0048066D01*
X0252819Y0045504D01*
X0250368Y0043100D01*
X0247867Y0040840D01*
X0245365Y0038580D01*
X0242813Y0036466D01*
X0237620Y0032501D01*
X0234980Y0030652D01*
X0229625Y0027195D01*
X0226911Y0025587D01*
X0221423Y0022589D01*
X0218649Y0021199D01*
X0213054Y0018611D01*
X0210234Y0017414D01*
X0204561Y0015188D01*
X0201708Y0014160D01*
X0198846Y0013205D01*
X0195985Y0012249D01*
X0193114Y0011366D01*
X0190241Y0010543D01*
X0187368Y0009720D01*
X0184492Y0008958D01*
X0181622Y0008244D01*
X0178751Y0007530D01*
X0175886Y0006864D01*
X0173032Y0006235D01*
X0114522Y0006235D01*
X0111436Y0007801D01*
X0108429Y0009392D01*
X0105503Y0011010D01*
X0102578Y0012627D01*
X0099734Y0014270D01*
X0096974Y0015939D01*
X0094214Y0017608D01*
X0091538Y0019303D01*
X0088948Y0021024D01*
X0086358Y0022744D01*
X0083854Y0024490D01*
X0081438Y0026262D01*
X0079022Y0028034D01*
X0076694Y0029832D01*
X0074457Y0031656D01*
X0072219Y0033480D01*
X0070072Y0035329D01*
X0068018Y0037204D01*
X0065963Y0039080D01*
X0064001Y0040981D01*
X0062134Y0042908D01*
X0060267Y0044834D01*
X0058494Y0046787D01*
X0056819Y0048766D01*
X0055143Y0050744D01*
X0053564Y0052748D01*
X0050605Y0056809D01*
X0049225Y0058865D01*
X0039178Y0178704D02*
X0039191Y0178745D01*
D11*
X0104026Y0093048D02*
X0104026Y0087048D01*
X0104026Y0067448D02*
X0104026Y0061448D01*
X0121826Y0061448D02*
X0121826Y0067448D01*
X0121826Y0087048D02*
X0121826Y0093048D01*
X0211022Y0067468D02*
X0217022Y0067468D01*
X0217022Y0057468D02*
X0211022Y0057468D01*
X0211022Y0047468D02*
X0217022Y0047468D01*
X0217022Y0037468D02*
X0211022Y0037468D01*
X0211022Y0027468D02*
X0217022Y0027468D01*
X0243238Y0053044D02*
X0249238Y0053044D01*
X0249238Y0063044D02*
X0243238Y0063044D01*
X0243238Y0073044D02*
X0249238Y0073044D01*
X0249238Y0083044D02*
X0243238Y0083044D01*
X0243238Y0093044D02*
X0249238Y0093044D01*
X0249238Y0103044D02*
X0243238Y0103044D01*
D12*
X0076664Y0042276D03*
X0066921Y0052020D03*
D13*
X0087256Y0048902D03*
X0087256Y0059138D03*
X0094737Y0059138D03*
X0094737Y0048902D03*
X0094343Y0038272D03*
X0086863Y0038272D03*
X0122926Y0033587D03*
X0130406Y0033587D03*
X0161626Y0074256D03*
X0169107Y0074256D03*
X0185170Y0106382D03*
X0192650Y0106382D03*
X0192532Y0148154D03*
X0200012Y0148154D03*
X0193674Y0183193D03*
X0186193Y0183193D03*
X0072886Y0197287D03*
X0065406Y0197287D03*
X0062414Y0106933D03*
X0069894Y0106933D03*
X0070091Y0097484D03*
X0062611Y0097484D03*
D14*
X0082965Y0094098D03*
X0082965Y0086618D03*
X0093004Y0086461D03*
X0093004Y0093941D03*
X0121941Y0102130D03*
X0121941Y0109610D03*
X0132374Y0109492D03*
X0132374Y0102012D03*
X0135091Y0052642D03*
X0135091Y0045161D03*
X0124461Y0045161D03*
X0124461Y0052642D03*
X0123280Y0023114D03*
X0123280Y0015634D03*
X0192532Y0089374D03*
X0192532Y0096854D03*
X0187886Y0162051D03*
X0187886Y0169531D03*
X0207493Y0177799D03*
X0207493Y0185280D03*
X0217532Y0185358D03*
X0217532Y0177878D03*
X0100091Y0196933D03*
X0100091Y0204413D03*
X0050091Y0184256D03*
X0050091Y0176776D03*
X0050012Y0167445D03*
X0050012Y0159965D03*
D15*
X0061439Y0086382D03*
X0070239Y0086382D03*
D16*
X0085406Y0104020D03*
X0085406Y0111500D03*
X0094067Y0107760D03*
X0103122Y0107445D03*
X0111784Y0111185D03*
X0111784Y0103705D03*
X0112650Y0048705D03*
X0112650Y0041224D03*
X0103989Y0044965D03*
X0089737Y0196303D03*
X0089737Y0203783D03*
X0081075Y0200043D03*
D17*
X0149658Y0050476D03*
X0149658Y0033154D03*
D18*
X0197020Y0159020D03*
X0199579Y0159020D03*
X0202138Y0159020D03*
X0202138Y0167287D03*
X0199579Y0167287D03*
X0197020Y0167287D03*
D19*
X0153800Y0022094D03*
X0134115Y0022094D03*
D20*
X0267572Y0194822D03*
X0267572Y0204822D03*
X0267572Y0214822D03*
D21*
X0175248Y0159571D03*
X0175248Y0149571D03*
X0175248Y0139571D03*
X0075642Y0139571D03*
X0075642Y0149571D03*
X0075642Y0159571D03*
D22*
X0102847Y0030201D03*
X0102847Y0026461D03*
X0102847Y0022720D03*
X0113083Y0022720D03*
X0113083Y0030201D03*
D23*
X0045650Y0122287D03*
X0045650Y0142287D03*
D24*
X0056351Y0153232D02*
X0056351Y0153626D01*
X0050012Y0159965D01*
X0050012Y0167445D02*
X0050012Y0176697D01*
X0050091Y0176776D01*
X0052886Y0176776D01*
X0057532Y0181972D01*
X0058319Y0188665D02*
X0058319Y0190201D01*
X0065406Y0197287D01*
X0072886Y0197287D02*
X0078319Y0197287D01*
X0081075Y0200043D01*
X0089737Y0196303D02*
X0099461Y0196303D01*
X0100091Y0196933D01*
X0104422Y0192602D01*
X0113437Y0192602D01*
X0113437Y0204413D01*
X0111469Y0206382D01*
X0111469Y0243783D01*
X0103595Y0204413D02*
X0100091Y0204413D01*
X0099461Y0203783D01*
X0089737Y0203783D01*
X0103595Y0204413D02*
X0107532Y0200476D01*
X0115406Y0168980D02*
X0105996Y0159571D01*
X0075642Y0159571D01*
X0075642Y0139571D02*
X0078713Y0139571D01*
X0081941Y0136343D01*
X0070130Y0113862D02*
X0064225Y0113862D01*
X0062256Y0111894D01*
X0062256Y0107091D01*
X0062414Y0106933D01*
X0063201Y0106933D01*
X0062611Y0106736D02*
X0062414Y0106933D01*
X0062611Y0106736D02*
X0062611Y0097484D01*
X0061439Y0096313D01*
X0061439Y0086382D01*
X0061439Y0084955D01*
X0087256Y0059138D01*
X0084304Y0059138D01*
X0081941Y0056776D01*
X0081941Y0054807D01*
X0078004Y0054807D01*
X0076664Y0053467D01*
X0076664Y0042276D01*
X0076664Y0036462D01*
X0083910Y0029217D01*
X0091784Y0029217D01*
X0091784Y0027248D01*
X0089815Y0025280D01*
X0091784Y0029217D02*
X0098280Y0022720D01*
X0102847Y0022720D01*
X0102847Y0026461D02*
X0100445Y0026461D01*
X0093752Y0033154D01*
X0087059Y0033154D01*
X0087059Y0038075D01*
X0086863Y0038272D01*
X0086863Y0048508D01*
X0087256Y0048902D01*
X0086469Y0049689D01*
X0080367Y0049689D01*
X0078004Y0058744D02*
X0076823Y0058744D01*
X0056744Y0078823D01*
X0070239Y0086382D02*
X0075672Y0091815D01*
X0076430Y0091815D01*
X0082965Y0094098D02*
X0092847Y0094098D01*
X0093004Y0093941D01*
X0085406Y0096539D02*
X0085406Y0104020D01*
X0085406Y0096539D02*
X0082965Y0094098D01*
X0082965Y0086618D02*
X0082729Y0086382D01*
X0070239Y0086382D01*
X0070239Y0097336D01*
X0070091Y0097484D01*
X0070091Y0106736D01*
X0069894Y0106933D01*
X0071075Y0106933D01*
X0076036Y0111894D01*
X0076430Y0111500D01*
X0085406Y0111500D01*
X0111784Y0111185D02*
X0120367Y0111185D01*
X0121941Y0109610D01*
X0122059Y0109492D01*
X0132374Y0109492D01*
X0121941Y0102130D02*
X0120367Y0103705D01*
X0111784Y0103705D01*
X0104026Y0064448D02*
X0089614Y0064448D01*
X0087847Y0062681D01*
X0087847Y0059728D01*
X0087256Y0059138D01*
X0086863Y0058744D01*
X0078004Y0058744D02*
X0071280Y0052020D01*
X0066921Y0052020D01*
X0094737Y0048902D02*
X0094737Y0038665D01*
X0094343Y0038272D01*
X0094776Y0038272D01*
X0102847Y0030201D01*
X0102847Y0026461D02*
X0106351Y0026461D01*
X0107532Y0027642D01*
X0107532Y0035122D01*
X0102414Y0040240D01*
X0102020Y0040240D01*
X0103989Y0044965D02*
X0098674Y0044965D01*
X0094737Y0048902D01*
X0112650Y0041224D02*
X0120524Y0041224D01*
X0124461Y0045161D01*
X0118556Y0045161D01*
X0118556Y0061178D01*
X0121826Y0064448D01*
X0124461Y0052642D02*
X0135091Y0052642D01*
X0147493Y0052642D01*
X0149658Y0050476D01*
X0137650Y0045161D02*
X0149658Y0033154D01*
X0156744Y0033154D01*
X0158713Y0035122D01*
X0149658Y0033154D02*
X0147099Y0033154D01*
X0135091Y0038272D02*
X0135091Y0045161D01*
X0137650Y0045161D01*
X0135091Y0038272D02*
X0130406Y0033587D01*
X0122926Y0033587D02*
X0116469Y0033587D01*
X0113083Y0030201D01*
X0107532Y0025280D02*
X0107532Y0019374D01*
X0109500Y0017406D01*
X0121508Y0017406D01*
X0123280Y0015634D01*
X0122886Y0022720D02*
X0123280Y0023114D01*
X0122886Y0022720D02*
X0113083Y0022720D01*
X0107532Y0025280D02*
X0106351Y0026461D01*
X0137847Y0139453D02*
X0137847Y0149295D01*
X0137847Y0139453D02*
X0174343Y0139571D01*
X0175248Y0139571D01*
X0178280Y0142602D01*
X0196115Y0142602D01*
X0200012Y0146500D01*
X0200012Y0148154D01*
X0187886Y0156815D02*
X0182335Y0151264D01*
X0176941Y0151264D01*
X0175248Y0149571D01*
X0173949Y0170555D02*
X0170130Y0170555D01*
X0173949Y0170555D02*
X0186193Y0183193D01*
X0180367Y0188665D02*
X0160681Y0168980D01*
X0115406Y0168980D01*
X0180367Y0188665D02*
X0198083Y0188665D01*
X0200052Y0186697D01*
X0200052Y0180791D01*
X0203044Y0177799D01*
X0207493Y0177799D01*
X0207493Y0185280D02*
X0202020Y0190752D01*
X0202020Y0191815D01*
X0207571Y0185358D02*
X0207493Y0185280D01*
X0207571Y0185358D02*
X0217532Y0185358D01*
X0195721Y0174098D02*
X0193122Y0169531D01*
X0187886Y0169531D01*
D25*
X0195721Y0174098D03*
X0202020Y0191815D03*
X0170130Y0170555D03*
X0137847Y0149295D03*
X0105563Y0102051D03*
X0101626Y0113075D03*
X0094933Y0113075D03*
X0081941Y0136343D03*
X0070130Y0113862D03*
X0076036Y0111894D03*
X0076430Y0091815D03*
X0056744Y0078823D03*
X0078004Y0058744D03*
X0080367Y0049689D03*
X0089815Y0025280D03*
X0102020Y0040240D03*
X0158713Y0035122D03*
X0162650Y0066618D03*
X0168556Y0066618D03*
X0186272Y0092996D03*
X0199264Y0089453D03*
X0203201Y0098114D03*
X0220918Y0092602D03*
X0111469Y0206382D03*
X0107532Y0200476D03*
X0111469Y0243783D03*
X0058319Y0188665D03*
X0057532Y0181972D03*
X0056351Y0153232D03*
X0183138Y0293112D03*
X0200839Y0296933D03*
D26*
X0193674Y0183193D02*
X0193674Y0178350D01*
X0193595Y0178429D01*
X0185878Y0178429D01*
X0178398Y0170949D01*
X0178398Y0162720D01*
X0175248Y0159571D01*
X0187886Y0162051D02*
X0187886Y0156815D01*
X0187886Y0162051D02*
X0188910Y0163075D01*
X0190209Y0163075D01*
X0194422Y0167287D01*
X0197020Y0167287D01*
X0199579Y0167287D02*
X0199579Y0177287D01*
X0194737Y0177287D01*
X0193674Y0178350D01*
X0202138Y0172445D02*
X0202138Y0167287D01*
X0202138Y0172445D02*
X0207493Y0177799D01*
X0202138Y0159020D02*
X0202020Y0158902D01*
X0202020Y0153232D01*
X0200012Y0151224D01*
X0200012Y0148154D01*
X0199579Y0155201D02*
X0192532Y0148154D01*
X0199579Y0155201D02*
X0199579Y0159020D01*
X0111784Y0103705D02*
X0110130Y0102051D01*
X0105563Y0102051D01*
X0094737Y0059138D02*
X0093752Y0058154D01*
X0093752Y0056776D01*
X0089815Y0052839D01*
X0087847Y0052839D01*
X0087847Y0049492D01*
X0087256Y0048902D01*
D27*
X0190996Y0287091D02*
X0200839Y0296933D01*
X0190996Y0287091D02*
X0183138Y0293112D01*
D28*
X0151097Y0295131D02*
X0052097Y0196131D01*
X0161626Y0074256D02*
X0162650Y0073232D01*
X0162650Y0066618D01*
X0168556Y0066618D02*
X0168556Y0073705D01*
X0169107Y0074256D01*
X0186272Y0092996D02*
X0186272Y0094177D01*
X0188241Y0096146D01*
X0185170Y0099217D01*
X0185170Y0106382D01*
X0192532Y0096854D02*
X0191823Y0096146D01*
X0188241Y0096146D01*
X0192532Y0089374D02*
X0199185Y0089374D01*
X0199264Y0089453D01*
X0203201Y0098114D02*
X0215406Y0098114D01*
X0220918Y0092602D01*
D29*
X0233297Y0095331D02*
X0206897Y0068931D01*
X0206897Y0064131D01*
X0213497Y0057531D01*
X0214022Y0057468D01*
X0204497Y0056931D02*
X0213497Y0047931D01*
X0214022Y0047468D01*
X0221297Y0046731D02*
X0221297Y0034731D01*
X0214097Y0027531D01*
X0214022Y0027468D01*
X0218897Y0023331D02*
X0173897Y0023331D01*
X0162497Y0034731D01*
X0162497Y0065931D01*
X0162650Y0066618D01*
X0161626Y0074256D02*
X0161897Y0074931D01*
X0161897Y0076731D01*
X0184097Y0098931D01*
X0184697Y0098931D01*
X0185170Y0099217D01*
X0182297Y0100131D02*
X0166097Y0083931D01*
X0169097Y0079731D02*
X0169097Y0074931D01*
X0169107Y0074256D01*
X0169097Y0079731D02*
X0184097Y0094731D01*
X0184097Y0095931D01*
X0192532Y0089374D02*
X0192497Y0088731D01*
X0192497Y0079731D01*
X0187097Y0074331D01*
X0187097Y0064131D01*
X0213497Y0037731D01*
X0214022Y0037468D01*
X0221297Y0046731D02*
X0245897Y0071331D01*
X0245897Y0072531D01*
X0246238Y0073044D01*
X0253697Y0060531D02*
X0246497Y0053331D01*
X0246238Y0053044D01*
X0245897Y0052731D01*
X0245897Y0050331D01*
X0218897Y0023331D01*
X0204497Y0056931D02*
X0204497Y0067731D01*
X0204497Y0069531D01*
X0235697Y0100731D01*
X0235697Y0106131D01*
X0220697Y0119931D02*
X0200297Y0099531D01*
X0200297Y0092331D01*
X0202097Y0090531D01*
X0202097Y0086331D01*
X0189497Y0073731D01*
X0192975Y0106056D02*
X0192650Y0106382D01*
X0192975Y0106056D02*
X0201952Y0106056D01*
X0194897Y0121131D02*
X0193097Y0121131D01*
X0157097Y0085131D01*
X0157097Y0046731D01*
X0154697Y0044331D01*
X0143297Y0044331D01*
X0138497Y0049131D01*
X0121097Y0049131D01*
X0120497Y0049731D01*
X0120497Y0055731D01*
X0122297Y0057531D01*
X0123497Y0057531D01*
X0139697Y0073731D01*
X0139697Y0100131D01*
X0139697Y0102531D02*
X0132497Y0102531D01*
X0132374Y0102012D01*
X0128897Y0105531D02*
X0140897Y0105531D01*
X0158897Y0123531D01*
X0170297Y0123531D01*
X0175832Y0125931D02*
X0133697Y0125931D01*
X0122297Y0114531D01*
X0128897Y0105531D02*
X0128297Y0104931D01*
X0128297Y0087531D01*
X0112697Y0071931D01*
X0112697Y0049131D01*
X0112650Y0048705D01*
X0123497Y0023331D02*
X0123280Y0023114D01*
X0123497Y0023331D02*
X0129497Y0023331D01*
X0133097Y0026931D01*
X0154697Y0026931D01*
X0162497Y0034731D01*
X0149658Y0050476D02*
X0147497Y0053331D01*
X0155897Y0061731D01*
X0155897Y0110331D01*
X0149897Y0112731D02*
X0139697Y0102531D01*
X0149897Y0112731D02*
X0172697Y0112731D01*
X0179297Y0123531D02*
X0195497Y0123531D01*
X0215897Y0143931D01*
X0220697Y0151731D02*
X0220697Y0119931D01*
X0225437Y0141477D02*
X0230827Y0141477D01*
X0235997Y0146646D01*
X0235997Y0146658D01*
X0244146Y0154807D01*
X0244146Y0161560D01*
X0244467Y0161881D01*
X0237867Y0158251D02*
X0231027Y0146736D01*
X0226036Y0146736D01*
X0220697Y0161931D02*
X0215897Y0166731D01*
X0214437Y0170241D02*
X0214437Y0174783D01*
X0217532Y0177878D01*
X0220039Y0177878D01*
X0224557Y0182396D01*
X0221897Y0182931D02*
X0221897Y0188331D01*
X0214097Y0196131D01*
X0163697Y0196131D01*
X0176897Y0187731D02*
X0184097Y0194931D01*
X0204497Y0194931D01*
X0209297Y0190131D01*
X0214097Y0181731D02*
X0213497Y0181131D01*
X0213497Y0176931D01*
X0207497Y0170931D01*
X0204497Y0170931D01*
X0206462Y0162266D02*
X0200192Y0162266D01*
X0199579Y0161653D01*
X0199579Y0159020D01*
X0206462Y0162266D02*
X0214437Y0170241D01*
X0214097Y0181731D02*
X0220697Y0181731D01*
X0221897Y0182931D01*
X0226427Y0192681D02*
X0253731Y0192681D01*
X0267572Y0214822D01*
X0253697Y0158331D02*
X0253697Y0060531D01*
X0192532Y0148154D02*
X0188884Y0148154D01*
X0186772Y0146041D01*
X0179297Y0128331D02*
X0106097Y0128331D01*
X0089297Y0111531D01*
X0089297Y0109131D01*
X0087497Y0107331D01*
X0075497Y0107331D01*
X0074897Y0106731D01*
X0070130Y0113862D02*
X0070097Y0114531D01*
X0070097Y0173931D01*
X0086297Y0190131D01*
X0113897Y0190131D01*
X0134297Y0210531D01*
X0134297Y0236931D01*
X0132497Y0248331D02*
X0112097Y0248331D01*
X0068897Y0205131D01*
X0068897Y0121131D01*
X0058097Y0110331D01*
X0058097Y0096531D01*
X0062297Y0117531D02*
X0062297Y0181131D01*
X0058697Y0184731D01*
X0050297Y0184731D01*
X0050091Y0184256D01*
X0056351Y0153232D02*
X0056297Y0152931D01*
X0046097Y0142731D01*
X0045650Y0142287D01*
X0045497Y0142131D01*
X0045497Y0122331D01*
X0045650Y0122287D01*
X0093004Y0086461D02*
X0093497Y0086931D01*
X0098297Y0091731D01*
X0098297Y0092931D01*
X0103122Y0107445D02*
X0103122Y0111579D01*
X0101626Y0113075D01*
X0094933Y0113075D02*
X0094933Y0108626D01*
X0094067Y0107760D01*
X0142697Y0158931D02*
X0157097Y0144531D01*
X0176897Y0187731D02*
X0086897Y0187731D01*
X0166697Y0236331D02*
X0129497Y0273531D01*
X0151097Y0295131D01*
X0152897Y0293331D01*
X0169697Y0293331D01*
X0168497Y0293331D01*
X0158897Y0302931D01*
X0151097Y0295131D01*
X0166697Y0236331D02*
X0175697Y0236331D01*
X0253697Y0158331D01*
D30*
X0244467Y0161881D03*
X0237867Y0158251D03*
X0226036Y0146736D03*
X0225437Y0141477D03*
X0220697Y0151731D03*
X0215897Y0143931D03*
X0220697Y0161931D03*
X0215897Y0166731D03*
X0204497Y0170931D03*
X0209297Y0190131D03*
X0224557Y0182396D03*
X0226427Y0192681D03*
X0186772Y0146041D03*
X0179297Y0128331D03*
X0175832Y0125931D03*
X0179297Y0123531D03*
X0170297Y0123531D03*
X0172697Y0112731D03*
X0182297Y0100131D03*
X0184097Y0095931D03*
X0189497Y0073731D03*
X0204497Y0067731D03*
X0206897Y0064131D03*
X0233297Y0095331D03*
X0235697Y0106131D03*
X0201952Y0106056D03*
X0194897Y0121131D03*
X0166097Y0083931D03*
X0155897Y0110331D03*
X0139697Y0100131D03*
X0122297Y0114531D03*
X0098297Y0092931D03*
X0074897Y0106731D03*
X0062297Y0117531D03*
X0058097Y0096531D03*
X0086897Y0187731D03*
X0052097Y0196131D03*
X0099519Y0269916D03*
X0104768Y0275766D03*
X0108198Y0269852D03*
X0112890Y0275312D03*
X0116256Y0280800D03*
X0112542Y0286024D03*
X0114551Y0291927D03*
X0109022Y0280777D03*
X0117341Y0270390D03*
X0132497Y0248331D03*
X0134297Y0236931D03*
X0166697Y0236331D03*
X0163697Y0196131D03*
X0142697Y0158931D03*
X0157097Y0144531D03*
X0188910Y0281391D03*
X0192676Y0286078D03*
X0195473Y0281464D03*
X0199110Y0285880D03*
X0202567Y0281419D03*
X0205228Y0285485D03*
X0209265Y0281464D03*
X0212592Y0285306D03*
X0216630Y0281307D03*
X0219897Y0285504D03*
X0223856Y0281228D03*
X0226547Y0285504D03*
X0230013Y0281110D03*
X0232942Y0285702D03*
X0236388Y0281010D03*
X0239970Y0285763D03*
X0235833Y0291027D03*
X0236724Y0297263D03*
X0235932Y0304686D03*
X0235239Y0310625D03*
X0241475Y0310922D03*
X0243752Y0304686D03*
X0243455Y0297341D03*
X0243613Y0291027D03*
X0246828Y0285835D03*
X0243316Y0280891D03*
X0250861Y0280659D03*
X0254289Y0286063D03*
X0250977Y0291106D03*
X0250067Y0297184D03*
X0258899Y0280659D03*
X0233457Y0317157D03*
X0231082Y0322799D03*
X0224648Y0322403D03*
X0224153Y0328738D03*
X0221480Y0333192D03*
X0219204Y0337943D03*
X0214254Y0332895D03*
X0213265Y0337745D03*
X0207029Y0337943D03*
X0207919Y0332796D03*
X0210988Y0328541D03*
X0216531Y0328243D03*
X0218115Y0322304D03*
X0218610Y0316266D03*
X0219501Y0309834D03*
X0211681Y0309834D03*
X0211483Y0316366D03*
X0211483Y0322205D03*
X0204653Y0328441D03*
X0200793Y0332895D03*
X0200793Y0337745D03*
X0193666Y0338141D03*
X0193864Y0332895D03*
X0198120Y0328342D03*
X0187430Y0338141D03*
X0158897Y0302931D03*
X0151097Y0295131D03*
X0169697Y0293331D03*
X0153082Y0321216D03*
X0152191Y0326857D03*
X0152488Y0332202D03*
X0147440Y0332202D03*
X0146054Y0326956D03*
X0147935Y0321314D03*
X0141600Y0321116D03*
X0140016Y0326659D03*
X0141996Y0332202D03*
X0137146Y0332302D03*
X0133582Y0326956D03*
X0135958Y0321116D03*
X0130712Y0321216D03*
X0128831Y0316068D03*
X0129425Y0310922D03*
X0124674Y0310823D03*
X0141006Y0338735D03*
X0146648Y0338735D03*
X0151696Y0338735D03*
X0225935Y0316563D03*
X0227518Y0310031D03*
D31*
X0238458Y0318775D02*
X0234040Y0324401D01*
X0229827Y0329290D01*
X0225855Y0333568D01*
X0225855Y0333568D01*
X0225283Y0334183D01*
X0225097Y0334384D01*
X0221125Y0338659D01*
X0220042Y0339739D01*
X0139193Y0340211D01*
X0139058Y0339912D01*
X0139044Y0339899D01*
X0138721Y0339210D01*
X0138721Y0339210D01*
X0137927Y0337513D01*
X0137926Y0337494D01*
X0137691Y0337009D01*
X0137463Y0336522D01*
X0137448Y0336509D01*
X0137105Y0335802D01*
X0137104Y0335786D01*
X0136863Y0335301D01*
X0136626Y0334814D01*
X0136614Y0334803D01*
X0136267Y0334107D01*
X0136267Y0334107D01*
X0136200Y0333972D01*
X0135771Y0333110D01*
X0135771Y0333110D01*
X0135424Y0332414D01*
X0135422Y0332398D01*
X0135175Y0331916D01*
X0134934Y0331431D01*
X0134922Y0331421D01*
X0134556Y0330707D01*
X0134555Y0330695D01*
X0134303Y0330212D01*
X0134054Y0329726D01*
X0134045Y0329718D01*
X0132790Y0327314D01*
X0132789Y0327302D01*
X0132532Y0326821D01*
X0132279Y0326337D01*
X0132270Y0326329D01*
X0131885Y0325605D01*
X0131884Y0325597D01*
X0131623Y0325113D01*
X0131365Y0324628D01*
X0131359Y0324623D01*
X0130968Y0323899D01*
X0130968Y0323899D01*
X0130048Y0322194D01*
X0130047Y0322186D01*
X0129783Y0321703D01*
X0129523Y0321220D01*
X0129517Y0321215D01*
X0129113Y0320476D01*
X0129113Y0320472D01*
X0128845Y0319986D01*
X0128581Y0319503D01*
X0128578Y0319500D01*
X0127221Y0317035D01*
X0127221Y0317031D01*
X0126952Y0316546D01*
X0126686Y0316063D01*
X0126683Y0316060D01*
X0126264Y0315303D01*
X0126264Y0315302D01*
X0125992Y0314812D01*
X0125724Y0314329D01*
X0125724Y0314329D01*
X0124324Y0311804D01*
X0124322Y0311788D01*
X0124054Y0311318D01*
X0123792Y0310845D01*
X0123779Y0310835D01*
X0123328Y0310043D01*
X0123326Y0310028D01*
X0123052Y0309559D01*
X0122784Y0309088D01*
X0122772Y0309079D01*
X0121759Y0307343D01*
X0121759Y0307343D01*
X0121308Y0306570D01*
X0121305Y0306555D01*
X0121027Y0306089D01*
X0120754Y0305621D01*
X0120742Y0305611D01*
X0120275Y0304830D01*
X0120273Y0304816D01*
X0119990Y0304353D01*
X0119710Y0303885D01*
X0119699Y0303877D01*
X0119233Y0303112D01*
X0119233Y0303112D01*
X0118185Y0301397D01*
X0118183Y0301383D01*
X0117896Y0300922D01*
X0117612Y0300457D01*
X0117601Y0300449D01*
X0117121Y0299678D01*
X0117119Y0299666D01*
X0116826Y0299205D01*
X0116538Y0298743D01*
X0116528Y0298736D01*
X0115452Y0297040D01*
X0114972Y0296284D01*
X0114970Y0296272D01*
X0114674Y0295815D01*
X0114382Y0295354D01*
X0114372Y0295347D01*
X0113880Y0294586D01*
X0113878Y0294576D01*
X0113579Y0294120D01*
X0113281Y0293659D01*
X0113273Y0293653D01*
X0112174Y0291978D01*
X0111682Y0291230D01*
X0111680Y0291219D01*
X0111376Y0290764D01*
X0111077Y0290307D01*
X0111068Y0290301D01*
X0110568Y0289552D01*
X0110567Y0289543D01*
X0110260Y0289089D01*
X0109955Y0288632D01*
X0109948Y0288627D01*
X0109451Y0287891D01*
X0109451Y0287891D01*
X0108910Y0287091D01*
X0108827Y0286968D01*
X0108827Y0286968D01*
X0108330Y0286232D01*
X0108328Y0286223D01*
X0108018Y0285770D01*
X0107711Y0285316D01*
X0107704Y0285311D01*
X0107199Y0284573D01*
X0107197Y0284566D01*
X0106885Y0284114D01*
X0106574Y0283660D01*
X0106568Y0283656D01*
X0106066Y0282930D01*
X0106066Y0282930D01*
X0105602Y0282259D01*
X0105432Y0282014D01*
X0105432Y0282014D01*
X0104930Y0281288D01*
X0104928Y0281281D01*
X0104612Y0280830D01*
X0104300Y0280378D01*
X0104294Y0280374D01*
X0103786Y0279648D01*
X0103785Y0279643D01*
X0103466Y0279190D01*
X0103151Y0278740D01*
X0103147Y0278737D01*
X0102642Y0278023D01*
X0102642Y0278023D01*
X0102503Y0277825D01*
X0102000Y0277112D01*
X0102000Y0277112D01*
X0101496Y0276398D01*
X0101495Y0276392D01*
X0101176Y0275944D01*
X0100858Y0275492D01*
X0100853Y0275489D01*
X0100346Y0274776D01*
X0100345Y0274772D01*
X0100022Y0274321D01*
X0099702Y0273872D01*
X0099699Y0273870D01*
X0098547Y0272261D01*
X0098547Y0272261D01*
X0098044Y0271558D01*
X0098043Y0271554D01*
X0097720Y0271106D01*
X0097398Y0270656D01*
X0097395Y0270654D01*
X0096890Y0269954D01*
X0096890Y0269951D01*
X0096563Y0269500D01*
X0096241Y0269053D01*
X0096239Y0269051D01*
X0094587Y0266768D01*
X0094587Y0266765D01*
X0094261Y0266317D01*
X0093936Y0265868D01*
X0093934Y0265867D01*
X0093436Y0265181D01*
X0093435Y0265180D01*
X0093107Y0264729D01*
X0092782Y0264281D01*
X0092781Y0264280D01*
X0091797Y0262929D01*
X0091140Y0262026D01*
X0091140Y0262025D01*
X0090814Y0261578D01*
X0090485Y0261126D01*
X0090484Y0261126D01*
X0089660Y0259995D01*
X0088352Y0258200D01*
X0087398Y0256893D01*
X0086884Y0256187D01*
X0088031Y0256662D01*
X0091663Y0256662D01*
X0095019Y0255272D01*
X0097588Y0252704D01*
X0098978Y0249348D01*
X0098978Y0248103D01*
X0147306Y0296432D01*
X0147706Y0297397D01*
X0148831Y0298523D01*
X0150302Y0299131D01*
X0150713Y0299131D01*
X0154897Y0303316D01*
X0154897Y0303727D01*
X0155506Y0305197D01*
X0156631Y0306323D01*
X0158102Y0306931D01*
X0159693Y0306931D01*
X0161163Y0306323D01*
X0162288Y0305197D01*
X0162897Y0303727D01*
X0162897Y0303316D01*
X0168887Y0297326D01*
X0168902Y0297331D01*
X0170493Y0297331D01*
X0171963Y0296723D01*
X0173088Y0295597D01*
X0173697Y0294127D01*
X0173697Y0292536D01*
X0173088Y0291066D01*
X0171963Y0289940D01*
X0170493Y0289331D01*
X0168902Y0289331D01*
X0167431Y0289940D01*
X0167140Y0290231D01*
X0152281Y0290231D01*
X0151579Y0290522D01*
X0134235Y0273178D01*
X0167081Y0240331D01*
X0167493Y0240331D01*
X0168963Y0239723D01*
X0169254Y0239431D01*
X0176314Y0239431D01*
X0177453Y0238960D01*
X0255453Y0160960D01*
X0256325Y0160088D01*
X0256797Y0158948D01*
X0256797Y0121130D01*
X0256923Y0121670D01*
X0256917Y0121713D01*
X0257049Y0122211D01*
X0257166Y0122713D01*
X0257191Y0122748D01*
X0257483Y0123853D01*
X0257479Y0123889D01*
X0257625Y0124390D01*
X0257759Y0124896D01*
X0257780Y0124924D01*
X0258817Y0128489D01*
X0258814Y0128519D01*
X0258972Y0129022D01*
X0259120Y0129529D01*
X0259138Y0129553D01*
X0259595Y0131008D01*
X0259593Y0131033D01*
X0259761Y0131539D01*
X0259920Y0132046D01*
X0259937Y0132066D01*
X0260476Y0133685D01*
X0260476Y0133685D01*
X0261365Y0136358D01*
X0261364Y0136380D01*
X0261541Y0136886D01*
X0261710Y0137394D01*
X0261725Y0137411D01*
X0262364Y0139237D01*
X0262363Y0139256D01*
X0262547Y0139763D01*
X0262725Y0140271D01*
X0262738Y0140285D01*
X0263468Y0142291D01*
X0263468Y0142291D01*
X0267208Y0152554D01*
X0269950Y0161895D01*
X0272136Y0171557D01*
X0272136Y0171557D01*
X0274075Y0180125D01*
X0275418Y0188835D01*
X0276196Y0197895D01*
X0276196Y0197895D01*
X0276879Y0205838D01*
X0276982Y0213939D01*
X0276089Y0229754D01*
X0275106Y0237271D01*
X0273960Y0242983D01*
X0273688Y0242324D01*
X0271119Y0239756D01*
X0267763Y0238366D01*
X0264131Y0238366D01*
X0260775Y0239756D01*
X0258207Y0242324D01*
X0256817Y0245680D01*
X0256817Y0249313D01*
X0258207Y0252669D01*
X0260775Y0255237D01*
X0264131Y0256627D01*
X0267763Y0256627D01*
X0271119Y0255237D01*
X0271305Y0255052D01*
X0270245Y0258893D01*
X0265554Y0272441D01*
X0262843Y0278861D01*
X0256701Y0291327D01*
X0253343Y0297225D01*
X0246048Y0308634D01*
X0242189Y0314023D01*
X0238458Y0318775D01*
X0238458Y0318775D01*
X0238045Y0319301D02*
X0128468Y0319301D01*
X0129565Y0321299D02*
X0236475Y0321299D01*
X0234906Y0323298D02*
X0130644Y0323298D01*
X0131722Y0325296D02*
X0233268Y0325296D01*
X0231547Y0327295D02*
X0132785Y0327295D01*
X0133823Y0329293D02*
X0229825Y0329293D01*
X0227968Y0331292D02*
X0134856Y0331292D01*
X0135860Y0333290D02*
X0226112Y0333290D01*
X0224256Y0335289D02*
X0136857Y0335289D01*
X0137826Y0337287D02*
X0222400Y0337287D01*
X0220497Y0339286D02*
X0138757Y0339286D01*
X0127368Y0317302D02*
X0239614Y0317302D01*
X0241183Y0315304D02*
X0126264Y0315304D01*
X0125156Y0313305D02*
X0242703Y0313305D01*
X0244134Y0311307D02*
X0124048Y0311307D01*
X0122909Y0309308D02*
X0245566Y0309308D01*
X0246895Y0307310D02*
X0121740Y0307310D01*
X0120562Y0305311D02*
X0155620Y0305311D01*
X0154894Y0303313D02*
X0119355Y0303313D01*
X0118140Y0301314D02*
X0152896Y0301314D01*
X0150897Y0299316D02*
X0116896Y0299316D01*
X0115628Y0297317D02*
X0147673Y0297317D01*
X0146193Y0295319D02*
X0114354Y0295319D01*
X0113054Y0293320D02*
X0144195Y0293320D01*
X0142196Y0291322D02*
X0111742Y0291322D01*
X0110418Y0289323D02*
X0140198Y0289323D01*
X0138199Y0287325D02*
X0109068Y0287325D01*
X0107718Y0285326D02*
X0136201Y0285326D01*
X0134202Y0283328D02*
X0106341Y0283328D01*
X0104958Y0281329D02*
X0132204Y0281329D01*
X0130205Y0279331D02*
X0103565Y0279331D01*
X0102155Y0277332D02*
X0128207Y0277332D01*
X0126208Y0275334D02*
X0100742Y0275334D01*
X0099316Y0273335D02*
X0124210Y0273335D01*
X0122211Y0271336D02*
X0097886Y0271336D01*
X0096447Y0269338D02*
X0120213Y0269338D01*
X0118214Y0267339D02*
X0095000Y0267339D01*
X0093552Y0265341D02*
X0116216Y0265341D01*
X0114217Y0263342D02*
X0092098Y0263342D01*
X0090644Y0261344D02*
X0112219Y0261344D01*
X0110220Y0259345D02*
X0089186Y0259345D01*
X0087730Y0257347D02*
X0108221Y0257347D01*
X0106223Y0255348D02*
X0094835Y0255348D01*
X0096942Y0253350D02*
X0104224Y0253350D01*
X0102226Y0251351D02*
X0098148Y0251351D01*
X0098976Y0249353D02*
X0100227Y0249353D01*
X0109509Y0241359D02*
X0157286Y0241359D01*
X0155287Y0243357D02*
X0111507Y0243357D01*
X0113381Y0245231D02*
X0129940Y0245231D01*
X0130231Y0244940D01*
X0131702Y0244331D01*
X0133293Y0244331D01*
X0134763Y0244940D01*
X0135888Y0246066D01*
X0136497Y0247536D01*
X0136497Y0249127D01*
X0135888Y0250597D01*
X0134763Y0251723D01*
X0133293Y0252331D01*
X0131702Y0252331D01*
X0130231Y0251723D01*
X0129940Y0251431D01*
X0112488Y0251431D01*
X0129851Y0268794D01*
X0162697Y0235947D01*
X0162697Y0235536D01*
X0163306Y0234066D01*
X0164431Y0232940D01*
X0165902Y0232331D01*
X0167493Y0232331D01*
X0168963Y0232940D01*
X0169254Y0233231D01*
X0174413Y0233231D01*
X0208413Y0199231D01*
X0166254Y0199231D01*
X0165963Y0199523D01*
X0164493Y0200131D01*
X0162902Y0200131D01*
X0161431Y0199523D01*
X0160306Y0198397D01*
X0159697Y0196927D01*
X0159697Y0195336D01*
X0160306Y0193866D01*
X0161431Y0192740D01*
X0162902Y0192131D01*
X0164493Y0192131D01*
X0165963Y0192740D01*
X0166254Y0193031D01*
X0177813Y0193031D01*
X0175613Y0190831D01*
X0118981Y0190831D01*
X0136925Y0208775D01*
X0137397Y0209915D01*
X0137397Y0234375D01*
X0137688Y0234666D01*
X0138297Y0236136D01*
X0138297Y0237727D01*
X0137688Y0239197D01*
X0136563Y0240323D01*
X0135093Y0240931D01*
X0133502Y0240931D01*
X0132031Y0240323D01*
X0130906Y0239197D01*
X0130297Y0237727D01*
X0130297Y0236136D01*
X0130906Y0234666D01*
X0131197Y0234375D01*
X0131197Y0211816D01*
X0112613Y0193231D01*
X0104693Y0193231D01*
X0104907Y0193602D01*
X0105044Y0194111D01*
X0105044Y0196548D01*
X0106621Y0195895D01*
X0108443Y0195895D01*
X0110127Y0196593D01*
X0111416Y0197881D01*
X0112113Y0199565D01*
X0112113Y0201388D01*
X0111416Y0203071D01*
X0110127Y0204360D01*
X0108443Y0205057D01*
X0108024Y0205057D01*
X0105844Y0207238D01*
X0105844Y0207529D01*
X0105417Y0208559D01*
X0104630Y0209346D01*
X0103601Y0209772D01*
X0096581Y0209772D01*
X0095552Y0209346D01*
X0094764Y0208559D01*
X0094437Y0207767D01*
X0094079Y0208126D01*
X0093049Y0208552D01*
X0086424Y0208552D01*
X0085395Y0208126D01*
X0084607Y0207338D01*
X0084181Y0206309D01*
X0084181Y0204812D01*
X0077762Y0204812D01*
X0076733Y0204386D01*
X0075946Y0203598D01*
X0075715Y0203040D01*
X0071997Y0203040D01*
X0071997Y0203847D01*
X0113381Y0245231D01*
X0114407Y0253350D02*
X0145295Y0253350D01*
X0147293Y0251351D02*
X0135134Y0251351D01*
X0136404Y0249353D02*
X0149292Y0249353D01*
X0151290Y0247354D02*
X0136422Y0247354D01*
X0135178Y0245356D02*
X0153289Y0245356D01*
X0158060Y0249353D02*
X0256833Y0249353D01*
X0256817Y0247354D02*
X0160058Y0247354D01*
X0162057Y0245356D02*
X0256951Y0245356D01*
X0257779Y0243357D02*
X0164055Y0243357D01*
X0166054Y0241359D02*
X0259172Y0241359D01*
X0261730Y0239360D02*
X0176486Y0239360D01*
X0179051Y0237362D02*
X0275088Y0237362D01*
X0275356Y0235363D02*
X0181050Y0235363D01*
X0183048Y0233365D02*
X0275617Y0233365D01*
X0275879Y0231366D02*
X0185047Y0231366D01*
X0187045Y0229368D02*
X0276111Y0229368D01*
X0276224Y0227369D02*
X0189044Y0227369D01*
X0191042Y0225371D02*
X0276337Y0225371D01*
X0276450Y0223372D02*
X0193041Y0223372D01*
X0195039Y0221374D02*
X0276562Y0221374D01*
X0276675Y0219375D02*
X0269649Y0219375D01*
X0269491Y0219456D02*
X0268743Y0219699D01*
X0267966Y0219822D01*
X0267572Y0219822D01*
X0267178Y0219822D01*
X0266401Y0219699D01*
X0265653Y0219456D01*
X0264951Y0219098D01*
X0264315Y0218636D01*
X0263758Y0218079D01*
X0263296Y0217443D01*
X0262938Y0216741D01*
X0262695Y0215993D01*
X0262572Y0215216D01*
X0262572Y0214822D01*
X0262572Y0214428D01*
X0262695Y0213651D01*
X0262938Y0212903D01*
X0263296Y0212201D01*
X0263758Y0211565D01*
X0264315Y0211008D01*
X0264951Y0210546D01*
X0265527Y0210253D01*
X0264287Y0209739D01*
X0262655Y0208107D01*
X0261772Y0205976D01*
X0261772Y0203668D01*
X0262655Y0201537D01*
X0264287Y0199905D01*
X0264487Y0199822D01*
X0264287Y0199739D01*
X0262655Y0198107D01*
X0261772Y0195976D01*
X0261772Y0193668D01*
X0262655Y0191537D01*
X0264287Y0189905D01*
X0266418Y0189022D01*
X0268726Y0189022D01*
X0270857Y0189905D01*
X0272489Y0191537D01*
X0273372Y0193668D01*
X0273372Y0195976D01*
X0272489Y0198107D01*
X0270857Y0199739D01*
X0270657Y0199822D01*
X0270857Y0199905D01*
X0272489Y0201537D01*
X0273372Y0203668D01*
X0273372Y0205976D01*
X0272489Y0208107D01*
X0270857Y0209739D01*
X0269617Y0210253D01*
X0270193Y0210546D01*
X0270829Y0211008D01*
X0271386Y0211565D01*
X0271848Y0212201D01*
X0272206Y0212903D01*
X0272449Y0213651D01*
X0272572Y0214428D01*
X0272572Y0214822D01*
X0272572Y0215216D01*
X0272449Y0215993D01*
X0272206Y0216741D01*
X0271848Y0217443D01*
X0271386Y0218079D01*
X0270829Y0218636D01*
X0270193Y0219098D01*
X0269491Y0219456D01*
X0267572Y0219375D02*
X0267572Y0219375D01*
X0267572Y0219822D02*
X0267572Y0214822D01*
X0262572Y0214822D01*
X0267572Y0214822D01*
X0267572Y0214822D01*
X0272572Y0214822D01*
X0267572Y0214822D01*
X0267572Y0214822D01*
X0267572Y0219822D01*
X0265495Y0219375D02*
X0197038Y0219375D01*
X0199036Y0217377D02*
X0263262Y0217377D01*
X0262598Y0215378D02*
X0201035Y0215378D01*
X0203033Y0213380D02*
X0262783Y0213380D01*
X0263942Y0211381D02*
X0205032Y0211381D01*
X0207030Y0209383D02*
X0263930Y0209383D01*
X0262355Y0207384D02*
X0209029Y0207384D01*
X0211027Y0205386D02*
X0261772Y0205386D01*
X0261888Y0203387D02*
X0213026Y0203387D01*
X0215024Y0201389D02*
X0262803Y0201389D01*
X0263938Y0199390D02*
X0217023Y0199390D01*
X0219021Y0197392D02*
X0262358Y0197392D01*
X0261772Y0195393D02*
X0221020Y0195393D01*
X0223018Y0193395D02*
X0261885Y0193395D01*
X0262796Y0191396D02*
X0225017Y0191396D01*
X0227015Y0189398D02*
X0265512Y0189398D01*
X0269632Y0189398D02*
X0275466Y0189398D01*
X0275638Y0191396D02*
X0272348Y0191396D01*
X0273259Y0193395D02*
X0275810Y0193395D01*
X0275981Y0195393D02*
X0273372Y0195393D01*
X0272786Y0197392D02*
X0276153Y0197392D01*
X0276325Y0199390D02*
X0271206Y0199390D01*
X0272341Y0201389D02*
X0276497Y0201389D01*
X0276668Y0203387D02*
X0273256Y0203387D01*
X0273372Y0205386D02*
X0276840Y0205386D01*
X0276899Y0207384D02*
X0272789Y0207384D01*
X0271214Y0209383D02*
X0276924Y0209383D01*
X0276949Y0211381D02*
X0271202Y0211381D01*
X0272361Y0213380D02*
X0276975Y0213380D01*
X0276901Y0215378D02*
X0272546Y0215378D01*
X0271882Y0217377D02*
X0276788Y0217377D01*
X0267572Y0217377D02*
X0267572Y0217377D01*
X0267572Y0215378D02*
X0267572Y0215378D01*
X0267572Y0214822D02*
X0267572Y0214822D01*
X0270164Y0239360D02*
X0274687Y0239360D01*
X0274286Y0241359D02*
X0272722Y0241359D01*
X0271223Y0255348D02*
X0270851Y0255348D01*
X0270671Y0257347D02*
X0150066Y0257347D01*
X0152064Y0255348D02*
X0261044Y0255348D01*
X0258888Y0253350D02*
X0154063Y0253350D01*
X0156061Y0251351D02*
X0257661Y0251351D01*
X0269396Y0261344D02*
X0146069Y0261344D01*
X0148067Y0259345D02*
X0270088Y0259345D01*
X0268704Y0263342D02*
X0144070Y0263342D01*
X0142072Y0265341D02*
X0268012Y0265341D01*
X0267321Y0267339D02*
X0140073Y0267339D01*
X0138075Y0269338D02*
X0266629Y0269338D01*
X0265937Y0271336D02*
X0136076Y0271336D01*
X0134392Y0273335D02*
X0265177Y0273335D01*
X0264333Y0275334D02*
X0136390Y0275334D01*
X0138389Y0277332D02*
X0263489Y0277332D01*
X0262612Y0279331D02*
X0140387Y0279331D01*
X0142386Y0281329D02*
X0261627Y0281329D01*
X0260642Y0283328D02*
X0144384Y0283328D01*
X0146383Y0285326D02*
X0259658Y0285326D01*
X0258673Y0287325D02*
X0148381Y0287325D01*
X0150380Y0289323D02*
X0257689Y0289323D01*
X0256704Y0291322D02*
X0173194Y0291322D01*
X0173697Y0293320D02*
X0255566Y0293320D01*
X0254429Y0295319D02*
X0173204Y0295319D01*
X0170528Y0297317D02*
X0253284Y0297317D01*
X0252006Y0299316D02*
X0166897Y0299316D01*
X0164899Y0301314D02*
X0250729Y0301314D01*
X0249451Y0303313D02*
X0162900Y0303313D01*
X0162174Y0305311D02*
X0248173Y0305311D01*
X0186271Y0221374D02*
X0137397Y0221374D01*
X0137397Y0223372D02*
X0184272Y0223372D01*
X0182274Y0225371D02*
X0137397Y0225371D01*
X0137397Y0227369D02*
X0180275Y0227369D01*
X0178277Y0229368D02*
X0137397Y0229368D01*
X0137397Y0231366D02*
X0176278Y0231366D01*
X0188269Y0219375D02*
X0137397Y0219375D01*
X0137397Y0217377D02*
X0190268Y0217377D01*
X0192267Y0215378D02*
X0137397Y0215378D01*
X0137397Y0213380D02*
X0194265Y0213380D01*
X0196264Y0211381D02*
X0137397Y0211381D01*
X0137177Y0209383D02*
X0198262Y0209383D01*
X0200261Y0207384D02*
X0135534Y0207384D01*
X0133535Y0205386D02*
X0202259Y0205386D01*
X0204258Y0203387D02*
X0131537Y0203387D01*
X0129538Y0201389D02*
X0206256Y0201389D01*
X0208255Y0199390D02*
X0166096Y0199390D01*
X0161299Y0199390D02*
X0127540Y0199390D01*
X0125541Y0197392D02*
X0159890Y0197392D01*
X0159697Y0195393D02*
X0123543Y0195393D01*
X0121544Y0193395D02*
X0160777Y0193395D01*
X0168031Y0181403D02*
X0081953Y0181403D01*
X0079955Y0179405D02*
X0166033Y0179405D01*
X0164034Y0177406D02*
X0077956Y0177406D01*
X0075958Y0175408D02*
X0162036Y0175408D01*
X0160037Y0173409D02*
X0073959Y0173409D01*
X0073197Y0172647D02*
X0084814Y0184265D01*
X0086102Y0183731D01*
X0087693Y0183731D01*
X0089163Y0184340D01*
X0089454Y0184631D01*
X0171259Y0184631D01*
X0159196Y0172568D01*
X0114692Y0172568D01*
X0113374Y0172022D01*
X0104510Y0163158D01*
X0081872Y0163158D01*
X0081559Y0163913D01*
X0080771Y0164700D01*
X0079742Y0165127D01*
X0073197Y0165127D01*
X0073197Y0172647D01*
X0073197Y0171411D02*
X0112763Y0171411D01*
X0110765Y0169412D02*
X0073197Y0169412D01*
X0073197Y0167414D02*
X0108766Y0167414D01*
X0106768Y0165415D02*
X0073197Y0165415D01*
X0065797Y0165415D02*
X0065397Y0165415D01*
X0065397Y0163417D02*
X0065797Y0163417D01*
X0065797Y0161418D02*
X0065397Y0161418D01*
X0065397Y0159420D02*
X0065797Y0159420D01*
X0065797Y0157421D02*
X0065397Y0157421D01*
X0065397Y0155423D02*
X0065797Y0155423D01*
X0065797Y0153424D02*
X0065397Y0153424D01*
X0065397Y0151426D02*
X0065797Y0151426D01*
X0065797Y0149427D02*
X0065397Y0149427D01*
X0065397Y0147429D02*
X0065797Y0147429D01*
X0065797Y0145430D02*
X0065397Y0145430D01*
X0065397Y0143432D02*
X0065797Y0143432D01*
X0065797Y0141433D02*
X0065397Y0141433D01*
X0065397Y0139435D02*
X0065797Y0139435D01*
X0065797Y0137436D02*
X0065397Y0137436D01*
X0065397Y0135438D02*
X0065797Y0135438D01*
X0065797Y0133439D02*
X0065397Y0133439D01*
X0065397Y0131441D02*
X0065797Y0131441D01*
X0065797Y0129442D02*
X0065397Y0129442D01*
X0065397Y0127444D02*
X0065797Y0127444D01*
X0065797Y0125445D02*
X0065397Y0125445D01*
X0065397Y0123447D02*
X0065797Y0123447D01*
X0065797Y0122416D02*
X0065397Y0122016D01*
X0065397Y0180515D01*
X0065397Y0181748D01*
X0064925Y0182887D01*
X0061973Y0185840D01*
X0062203Y0186070D01*
X0062900Y0187754D01*
X0062900Y0189577D01*
X0062862Y0189670D01*
X0064726Y0191535D01*
X0065797Y0191535D01*
X0065797Y0122416D01*
X0059197Y0121448D02*
X0055650Y0121448D01*
X0055650Y0121787D02*
X0046150Y0121787D01*
X0046150Y0117287D01*
X0053913Y0117287D01*
X0054422Y0117424D01*
X0054878Y0117687D01*
X0055250Y0118059D01*
X0055514Y0118515D01*
X0055650Y0119024D01*
X0055650Y0121787D01*
X0055650Y0122787D02*
X0055650Y0125551D01*
X0055514Y0126059D01*
X0055250Y0126515D01*
X0054878Y0126888D01*
X0054422Y0127151D01*
X0053913Y0127287D01*
X0046150Y0127287D01*
X0046150Y0122787D01*
X0055650Y0122787D01*
X0055650Y0123447D02*
X0059197Y0123447D01*
X0059197Y0125445D02*
X0055650Y0125445D01*
X0059197Y0127444D02*
X0039296Y0127444D01*
X0039295Y0127287D02*
X0039319Y0131144D01*
X0039319Y0131144D01*
X0039343Y0134958D01*
X0039358Y0137287D01*
X0045150Y0137287D01*
X0045150Y0141787D01*
X0046150Y0141787D01*
X0046150Y0137287D01*
X0053913Y0137287D01*
X0054422Y0137424D01*
X0054878Y0137687D01*
X0055250Y0138059D01*
X0055514Y0138515D01*
X0055650Y0139024D01*
X0055650Y0141787D01*
X0046150Y0141787D01*
X0046150Y0142787D01*
X0055650Y0142787D01*
X0055650Y0145551D01*
X0055514Y0146059D01*
X0055250Y0146515D01*
X0054878Y0146888D01*
X0054422Y0147151D01*
X0053913Y0147287D01*
X0046150Y0147287D01*
X0046150Y0142787D01*
X0045150Y0142787D01*
X0045150Y0147287D01*
X0039420Y0147287D01*
X0039486Y0157839D01*
X0039486Y0157839D01*
X0039510Y0161653D01*
X0039522Y0163590D01*
X0039589Y0164933D01*
X0039768Y0166908D01*
X0039846Y0167775D01*
X0040026Y0169165D01*
X0040509Y0172083D01*
X0040797Y0173515D01*
X0041019Y0174464D01*
X0041447Y0176299D01*
X0041575Y0176610D01*
X0041575Y0176804D01*
X0041869Y0177922D01*
X0041892Y0178000D01*
X0042029Y0178431D01*
X0042026Y0178456D01*
X0042172Y0178953D01*
X0042172Y0178953D01*
X0042777Y0181008D01*
X0043261Y0182507D01*
X0043710Y0183791D01*
X0044338Y0185591D01*
X0044338Y0181140D01*
X0044597Y0180516D01*
X0044338Y0179892D01*
X0044338Y0173660D01*
X0044764Y0172630D01*
X0045245Y0172150D01*
X0044686Y0171590D01*
X0044259Y0170561D01*
X0044259Y0164329D01*
X0044686Y0163300D01*
X0045089Y0162897D01*
X0045059Y0162787D01*
X0045059Y0160244D01*
X0049733Y0160244D01*
X0049733Y0159685D01*
X0050292Y0159685D01*
X0050292Y0160244D01*
X0054965Y0160244D01*
X0054965Y0162787D01*
X0054936Y0162897D01*
X0055339Y0163300D01*
X0055765Y0164329D01*
X0055765Y0170561D01*
X0055339Y0171590D01*
X0054858Y0172071D01*
X0055417Y0172630D01*
X0055844Y0173660D01*
X0055844Y0174660D01*
X0055927Y0174743D01*
X0055967Y0174839D01*
X0058248Y0177391D01*
X0058443Y0177391D01*
X0059197Y0177704D01*
X0059197Y0120088D01*
X0058906Y0119797D01*
X0058297Y0118327D01*
X0058297Y0116736D01*
X0058830Y0115449D01*
X0056341Y0112960D01*
X0055469Y0112087D01*
X0054997Y0110948D01*
X0054997Y0099088D01*
X0054706Y0098797D01*
X0054097Y0097327D01*
X0054097Y0095736D01*
X0054706Y0094266D01*
X0055831Y0093140D01*
X0057302Y0092531D01*
X0057852Y0092531D01*
X0057852Y0091857D01*
X0057003Y0091506D01*
X0056215Y0090718D01*
X0055789Y0089689D01*
X0055789Y0083075D01*
X0056215Y0082046D01*
X0057003Y0081258D01*
X0058032Y0080832D01*
X0060489Y0080832D01*
X0080707Y0060614D01*
X0079909Y0059817D01*
X0078900Y0058808D01*
X0078729Y0058394D01*
X0077291Y0058394D01*
X0075972Y0057848D01*
X0074963Y0056839D01*
X0074632Y0056508D01*
X0073623Y0055499D01*
X0073077Y0054181D01*
X0073077Y0053423D01*
X0073066Y0053495D01*
X0072759Y0054438D01*
X0072309Y0055321D01*
X0071726Y0056124D01*
X0071376Y0056474D01*
X0066921Y0052020D01*
X0071376Y0056474D01*
X0071025Y0056825D01*
X0070223Y0057408D01*
X0069339Y0057858D01*
X0068396Y0058164D01*
X0067417Y0058320D01*
X0066425Y0058320D01*
X0065446Y0058164D01*
X0064502Y0057858D01*
X0063619Y0057408D01*
X0062817Y0056825D01*
X0062466Y0056474D01*
X0062115Y0056124D01*
X0061533Y0055321D01*
X0061082Y0054438D01*
X0060776Y0053495D01*
X0060621Y0052515D01*
X0060621Y0051524D01*
X0060776Y0050544D01*
X0061082Y0049601D01*
X0061533Y0048718D01*
X0062115Y0047915D01*
X0062466Y0047565D01*
X0066921Y0052019D01*
X0066921Y0052019D01*
X0071376Y0047565D01*
X0071726Y0047915D01*
X0072309Y0048718D01*
X0072759Y0049601D01*
X0073066Y0050544D01*
X0073077Y0050616D01*
X0073077Y0048475D01*
X0072643Y0048295D01*
X0070645Y0046298D01*
X0069564Y0043688D01*
X0069564Y0040864D01*
X0070417Y0038805D01*
X0070317Y0038897D01*
X0067882Y0041120D01*
X0065981Y0042961D01*
X0064532Y0044456D01*
X0062309Y0046750D01*
X0060600Y0048633D01*
X0058595Y0051000D01*
X0057312Y0052516D01*
X0055796Y0054440D01*
X0052900Y0058414D01*
X0051581Y0060379D01*
X0049083Y0064445D01*
X0047963Y0066449D01*
X0047166Y0068031D01*
X0047166Y0068031D01*
X0046951Y0068458D01*
X0046665Y0069026D01*
X0046665Y0069026D01*
X0045869Y0070607D01*
X0044949Y0072652D01*
X0043992Y0075069D01*
X0043266Y0076903D01*
X0042549Y0078990D01*
X0042071Y0080629D01*
X0042015Y0080821D01*
X0041760Y0081698D01*
X0041760Y0081698D01*
X0041282Y0083336D01*
X0040770Y0085468D01*
X0039927Y0089912D01*
X0039622Y0092091D01*
X0039367Y0094918D01*
X0039211Y0096637D01*
X0039117Y0098868D01*
X0039128Y0100635D01*
X0039128Y0100635D01*
X0039152Y0104449D01*
X0039152Y0104449D01*
X0039176Y0108262D01*
X0039176Y0108262D01*
X0039233Y0117287D01*
X0045150Y0117287D01*
X0045150Y0121787D01*
X0046150Y0121787D01*
X0046150Y0122787D01*
X0045150Y0122787D01*
X0045150Y0127287D01*
X0039295Y0127287D01*
X0039308Y0129442D02*
X0059197Y0129442D01*
X0059197Y0131441D02*
X0039321Y0131441D01*
X0039333Y0133439D02*
X0059197Y0133439D01*
X0059197Y0135438D02*
X0039346Y0135438D01*
X0039343Y0134958D02*
X0039343Y0134958D01*
X0045150Y0137436D02*
X0046150Y0137436D01*
X0046150Y0139435D02*
X0045150Y0139435D01*
X0045150Y0141433D02*
X0046150Y0141433D01*
X0046150Y0143432D02*
X0045150Y0143432D01*
X0045150Y0145430D02*
X0046150Y0145430D01*
X0039421Y0147429D02*
X0059197Y0147429D01*
X0059197Y0149427D02*
X0039433Y0149427D01*
X0039446Y0151426D02*
X0059197Y0151426D01*
X0059197Y0153424D02*
X0039458Y0153424D01*
X0039471Y0155423D02*
X0046732Y0155423D01*
X0046796Y0155406D02*
X0049733Y0155406D01*
X0049733Y0159685D01*
X0045059Y0159685D01*
X0045059Y0157142D01*
X0045196Y0156634D01*
X0045459Y0156177D01*
X0045831Y0155805D01*
X0046287Y0155542D01*
X0046796Y0155406D01*
X0045059Y0157421D02*
X0039483Y0157421D01*
X0039496Y0159420D02*
X0045059Y0159420D01*
X0045059Y0161418D02*
X0039508Y0161418D01*
X0039510Y0161653D02*
X0039510Y0161653D01*
X0039521Y0163417D02*
X0044637Y0163417D01*
X0044259Y0165415D02*
X0039633Y0165415D01*
X0039813Y0167414D02*
X0044259Y0167414D01*
X0044259Y0169412D02*
X0040067Y0169412D01*
X0040398Y0171411D02*
X0044612Y0171411D01*
X0044442Y0173409D02*
X0040776Y0173409D01*
X0041019Y0174464D02*
X0041019Y0174464D01*
X0041239Y0175408D02*
X0044338Y0175408D01*
X0044338Y0177406D02*
X0041734Y0177406D01*
X0042306Y0179405D02*
X0044338Y0179405D01*
X0044338Y0181403D02*
X0042905Y0181403D01*
X0043574Y0183402D02*
X0044338Y0183402D01*
X0044338Y0185400D02*
X0044272Y0185400D01*
X0045774Y0189280D02*
X0046158Y0190243D01*
X0046810Y0191787D01*
X0047283Y0192854D01*
X0047283Y0192854D01*
X0047487Y0193312D01*
X0047735Y0193872D01*
X0048209Y0194938D01*
X0048237Y0194999D01*
X0048706Y0193866D01*
X0049831Y0192740D01*
X0051302Y0192131D01*
X0052893Y0192131D01*
X0054363Y0192740D01*
X0055488Y0193866D01*
X0055888Y0194831D01*
X0060047Y0198990D01*
X0060047Y0197002D01*
X0055278Y0192233D01*
X0055186Y0192011D01*
X0054436Y0191260D01*
X0053738Y0189577D01*
X0053738Y0189558D01*
X0053601Y0189615D01*
X0046581Y0189615D01*
X0045774Y0189280D01*
X0045820Y0189398D02*
X0046056Y0189398D01*
X0046645Y0191396D02*
X0054571Y0191396D01*
X0055017Y0193395D02*
X0056440Y0193395D01*
X0056450Y0195393D02*
X0058438Y0195393D01*
X0058448Y0197392D02*
X0060047Y0197392D01*
X0064097Y0203040D02*
X0065797Y0203040D01*
X0065797Y0204740D01*
X0064097Y0203040D01*
X0064444Y0203387D02*
X0065797Y0203387D01*
X0071997Y0203387D02*
X0075858Y0203387D01*
X0073535Y0205386D02*
X0084181Y0205386D01*
X0084653Y0207384D02*
X0075534Y0207384D01*
X0077532Y0209383D02*
X0095640Y0209383D01*
X0104542Y0209383D02*
X0128764Y0209383D01*
X0130763Y0211381D02*
X0079531Y0211381D01*
X0081529Y0213380D02*
X0131197Y0213380D01*
X0131197Y0215378D02*
X0083528Y0215378D01*
X0085526Y0217377D02*
X0131197Y0217377D01*
X0131197Y0219375D02*
X0087525Y0219375D01*
X0089523Y0221374D02*
X0131197Y0221374D01*
X0131197Y0223372D02*
X0091522Y0223372D01*
X0093521Y0225371D02*
X0131197Y0225371D01*
X0131197Y0227369D02*
X0095519Y0227369D01*
X0097518Y0229368D02*
X0131197Y0229368D01*
X0131197Y0231366D02*
X0099516Y0231366D01*
X0101515Y0233365D02*
X0131197Y0233365D01*
X0130617Y0235363D02*
X0103513Y0235363D01*
X0105512Y0237362D02*
X0130297Y0237362D01*
X0131069Y0239360D02*
X0107510Y0239360D01*
X0116405Y0255348D02*
X0143296Y0255348D01*
X0141298Y0257347D02*
X0118404Y0257347D01*
X0120402Y0259345D02*
X0139299Y0259345D01*
X0137301Y0261344D02*
X0122401Y0261344D01*
X0124399Y0263342D02*
X0135302Y0263342D01*
X0133304Y0265341D02*
X0126398Y0265341D01*
X0128396Y0267339D02*
X0131305Y0267339D01*
X0137525Y0239360D02*
X0159284Y0239360D01*
X0161283Y0237362D02*
X0138297Y0237362D01*
X0137977Y0235363D02*
X0162769Y0235363D01*
X0164007Y0233365D02*
X0137397Y0233365D01*
X0126766Y0207384D02*
X0105844Y0207384D01*
X0107696Y0205386D02*
X0124767Y0205386D01*
X0122769Y0203387D02*
X0111100Y0203387D01*
X0112113Y0201389D02*
X0120770Y0201389D01*
X0118772Y0199390D02*
X0112040Y0199390D01*
X0110926Y0197392D02*
X0116773Y0197392D01*
X0114775Y0195393D02*
X0105044Y0195393D01*
X0104788Y0193395D02*
X0112776Y0193395D01*
X0119546Y0191396D02*
X0176178Y0191396D01*
X0180834Y0184060D02*
X0180834Y0182817D01*
X0172719Y0174441D01*
X0171656Y0174882D01*
X0180834Y0184060D01*
X0180834Y0183402D02*
X0180177Y0183402D01*
X0179465Y0181403D02*
X0178178Y0181403D01*
X0177528Y0179405D02*
X0176179Y0179405D01*
X0175592Y0177406D02*
X0174181Y0177406D01*
X0173656Y0175408D02*
X0172182Y0175408D01*
X0170030Y0183402D02*
X0083952Y0183402D01*
X0079181Y0187399D02*
X0071997Y0187399D01*
X0071997Y0185400D02*
X0077182Y0185400D01*
X0075184Y0183402D02*
X0071997Y0183402D01*
X0071997Y0181403D02*
X0073185Y0181403D01*
X0071997Y0180216D02*
X0071997Y0191535D01*
X0076002Y0191535D01*
X0077031Y0191961D01*
X0077819Y0192749D01*
X0078213Y0193700D01*
X0079033Y0193700D01*
X0080351Y0194246D01*
X0081361Y0195255D01*
X0081361Y0195255D01*
X0081380Y0195275D01*
X0084388Y0195275D01*
X0084981Y0195520D01*
X0084981Y0194071D01*
X0085117Y0193563D01*
X0085380Y0193107D01*
X0084541Y0192760D01*
X0071997Y0180216D01*
X0065797Y0179405D02*
X0065397Y0179405D01*
X0065397Y0181403D02*
X0065797Y0181403D01*
X0065797Y0183402D02*
X0064411Y0183402D01*
X0065797Y0185400D02*
X0062412Y0185400D01*
X0062753Y0187399D02*
X0065797Y0187399D01*
X0065797Y0189398D02*
X0062900Y0189398D01*
X0064588Y0191396D02*
X0065797Y0191396D01*
X0071997Y0191396D02*
X0083178Y0191396D01*
X0081179Y0189398D02*
X0071997Y0189398D01*
X0078087Y0193395D02*
X0085214Y0193395D01*
X0084981Y0195393D02*
X0084674Y0195393D01*
X0089737Y0196303D02*
X0089737Y0196303D01*
X0094493Y0196303D01*
X0094493Y0194071D01*
X0094356Y0193563D01*
X0094165Y0193231D01*
X0095488Y0193231D01*
X0095274Y0193602D01*
X0095138Y0194111D01*
X0095138Y0196654D01*
X0099811Y0196654D01*
X0099811Y0197213D01*
X0095138Y0197213D01*
X0095138Y0199755D01*
X0095168Y0199865D01*
X0094837Y0200196D01*
X0094833Y0200196D01*
X0094109Y0199472D01*
X0094356Y0199044D01*
X0094493Y0198535D01*
X0094493Y0196303D01*
X0089737Y0196303D01*
X0094493Y0195393D02*
X0095138Y0195393D01*
X0095138Y0197392D02*
X0094493Y0197392D01*
X0094156Y0199390D02*
X0095138Y0199390D01*
X0095394Y0193395D02*
X0094259Y0193395D01*
X0074247Y0223372D02*
X0064107Y0223372D01*
X0064069Y0223314D02*
X0065064Y0224860D01*
X0065776Y0225952D01*
X0067080Y0227950D01*
X0068091Y0229478D01*
X0069421Y0231464D01*
X0070130Y0232523D01*
X0071150Y0234029D01*
X0071859Y0235067D01*
X0073197Y0237024D01*
X0074233Y0238521D01*
X0076345Y0241538D01*
X0077412Y0243048D01*
X0078820Y0245025D01*
X0079580Y0246093D01*
X0080676Y0247619D01*
X0080717Y0247676D01*
X0080717Y0245715D01*
X0082107Y0242359D01*
X0084675Y0239791D01*
X0088031Y0238401D01*
X0089275Y0238401D01*
X0050797Y0199923D01*
X0050545Y0199818D01*
X0051259Y0201237D01*
X0051891Y0202450D01*
X0052915Y0204414D01*
X0053762Y0205989D01*
X0054912Y0208065D01*
X0055522Y0209166D01*
X0056418Y0210741D01*
X0057313Y0212275D01*
X0058266Y0213909D01*
X0059203Y0215478D01*
X0059874Y0216578D01*
X0060093Y0216939D01*
X0060453Y0217530D01*
X0061124Y0218630D01*
X0062094Y0220190D01*
X0062784Y0221281D01*
X0064069Y0223314D01*
X0062842Y0221374D02*
X0072248Y0221374D01*
X0070250Y0219375D02*
X0061587Y0219375D01*
X0060453Y0217530D02*
X0060453Y0217530D01*
X0060360Y0217377D02*
X0068251Y0217377D01*
X0066253Y0215378D02*
X0059143Y0215378D01*
X0059874Y0216578D02*
X0059874Y0216578D01*
X0057957Y0213380D02*
X0064254Y0213380D01*
X0062256Y0211381D02*
X0056792Y0211381D01*
X0055645Y0209383D02*
X0060257Y0209383D01*
X0058259Y0207384D02*
X0054535Y0207384D01*
X0054912Y0208065D02*
X0054912Y0208065D01*
X0056260Y0205386D02*
X0053437Y0205386D01*
X0054262Y0203387D02*
X0052379Y0203387D01*
X0052263Y0201389D02*
X0051338Y0201389D01*
X0049177Y0193395D02*
X0047523Y0193395D01*
X0047735Y0193872D02*
X0047735Y0193872D01*
X0058480Y0177406D02*
X0059197Y0177406D01*
X0059197Y0175408D02*
X0056475Y0175408D01*
X0055740Y0173409D02*
X0059197Y0173409D01*
X0059197Y0171411D02*
X0055413Y0171411D01*
X0055765Y0169412D02*
X0059197Y0169412D01*
X0059197Y0167414D02*
X0055765Y0167414D01*
X0055765Y0165415D02*
X0059197Y0165415D01*
X0059197Y0163417D02*
X0055387Y0163417D01*
X0054965Y0161418D02*
X0059197Y0161418D01*
X0059197Y0159420D02*
X0054965Y0159420D01*
X0054965Y0159685D02*
X0050292Y0159685D01*
X0050292Y0155406D01*
X0053228Y0155406D01*
X0053737Y0155542D01*
X0054193Y0155805D01*
X0054565Y0156177D01*
X0054829Y0156634D01*
X0054965Y0157142D01*
X0054965Y0159685D01*
X0054965Y0157421D02*
X0059197Y0157421D01*
X0059197Y0155423D02*
X0053293Y0155423D01*
X0050292Y0155423D02*
X0049733Y0155423D01*
X0049733Y0157421D02*
X0050292Y0157421D01*
X0050292Y0159420D02*
X0049733Y0159420D01*
X0055650Y0145430D02*
X0059197Y0145430D01*
X0059197Y0143432D02*
X0055650Y0143432D01*
X0055650Y0141433D02*
X0059197Y0141433D01*
X0059197Y0139435D02*
X0055650Y0139435D01*
X0054444Y0137436D02*
X0059197Y0137436D01*
X0073197Y0134815D02*
X0075264Y0134815D01*
X0075264Y0139193D01*
X0076020Y0139193D01*
X0076020Y0139949D01*
X0081185Y0139949D01*
X0081185Y0142590D01*
X0081049Y0143099D01*
X0080786Y0143555D01*
X0080413Y0143927D01*
X0080045Y0144140D01*
X0080771Y0144441D01*
X0081559Y0145229D01*
X0081985Y0146258D01*
X0081985Y0152884D01*
X0081559Y0153913D01*
X0080901Y0154571D01*
X0081559Y0155229D01*
X0081872Y0155983D01*
X0106710Y0155983D01*
X0108029Y0156530D01*
X0114968Y0163469D01*
X0114968Y0142203D01*
X0115394Y0141174D01*
X0116182Y0140386D01*
X0117211Y0139960D01*
X0134258Y0139960D01*
X0134259Y0139447D01*
X0134259Y0138739D01*
X0134262Y0138734D01*
X0134262Y0138728D01*
X0134535Y0138074D01*
X0134806Y0137421D01*
X0134810Y0137416D01*
X0134812Y0137411D01*
X0135314Y0136913D01*
X0135815Y0136412D01*
X0135820Y0136409D01*
X0135825Y0136405D01*
X0136479Y0136136D01*
X0137133Y0135865D01*
X0137139Y0135865D01*
X0137145Y0135863D01*
X0137852Y0135865D01*
X0138560Y0135865D01*
X0138566Y0135868D01*
X0169026Y0135966D01*
X0169331Y0135229D01*
X0170119Y0134441D01*
X0171148Y0134015D01*
X0179349Y0134015D01*
X0180378Y0134441D01*
X0181165Y0135229D01*
X0181592Y0136258D01*
X0181592Y0139015D01*
X0196828Y0139015D01*
X0198147Y0139561D01*
X0199156Y0140570D01*
X0200986Y0142401D01*
X0203128Y0142401D01*
X0204157Y0142827D01*
X0204945Y0143615D01*
X0205371Y0144644D01*
X0205371Y0151663D01*
X0205152Y0152192D01*
X0205312Y0152577D01*
X0205312Y0156718D01*
X0205627Y0157478D01*
X0205627Y0160561D01*
X0205201Y0161590D01*
X0204413Y0162378D01*
X0203384Y0162804D01*
X0200892Y0162804D01*
X0199863Y0162378D01*
X0199579Y0162094D01*
X0199295Y0162378D01*
X0198266Y0162804D01*
X0195774Y0162804D01*
X0194745Y0162378D01*
X0193957Y0161590D01*
X0193639Y0160821D01*
X0193639Y0161849D01*
X0195434Y0163644D01*
X0195774Y0163503D01*
X0198266Y0163503D01*
X0198300Y0163517D01*
X0198333Y0163503D01*
X0200825Y0163503D01*
X0200859Y0163517D01*
X0200892Y0163503D01*
X0203384Y0163503D01*
X0204413Y0163929D01*
X0205201Y0164717D01*
X0205627Y0165746D01*
X0205627Y0167070D01*
X0206763Y0167540D01*
X0207054Y0167831D01*
X0208114Y0167831D01*
X0209253Y0168303D01*
X0214279Y0173329D01*
X0214316Y0173319D01*
X0217252Y0173319D01*
X0217252Y0177598D01*
X0217811Y0177598D01*
X0217811Y0173319D01*
X0220748Y0173319D01*
X0221257Y0173455D01*
X0221713Y0173718D01*
X0222085Y0174091D01*
X0222348Y0174547D01*
X0222485Y0175056D01*
X0222485Y0177598D01*
X0217811Y0177598D01*
X0217811Y0178157D01*
X0222485Y0178157D01*
X0222485Y0179135D01*
X0224525Y0181175D01*
X0224997Y0182315D01*
X0224997Y0182647D01*
X0242322Y0165323D01*
X0242201Y0165273D01*
X0241076Y0164147D01*
X0240467Y0162677D01*
X0240467Y0161308D01*
X0240133Y0161643D01*
X0238663Y0162251D01*
X0237072Y0162251D01*
X0235601Y0161643D01*
X0234476Y0160517D01*
X0233867Y0159047D01*
X0233867Y0157588D01*
X0229263Y0149836D01*
X0228593Y0149836D01*
X0228302Y0150127D01*
X0226831Y0150736D01*
X0225240Y0150736D01*
X0224485Y0150423D01*
X0224697Y0150936D01*
X0224697Y0152527D01*
X0224088Y0153997D01*
X0222963Y0155123D01*
X0221493Y0155731D01*
X0219902Y0155731D01*
X0218431Y0155123D01*
X0217306Y0153997D01*
X0216697Y0152527D01*
X0216697Y0150936D01*
X0217306Y0149466D01*
X0217597Y0149175D01*
X0217597Y0147557D01*
X0216693Y0147931D01*
X0215102Y0147931D01*
X0213631Y0147323D01*
X0212506Y0146197D01*
X0211897Y0144727D01*
X0211897Y0144316D01*
X0194213Y0126631D01*
X0182923Y0126631D01*
X0183297Y0127536D01*
X0183297Y0129127D01*
X0182688Y0130597D01*
X0181563Y0131723D01*
X0180093Y0132331D01*
X0178502Y0132331D01*
X0177031Y0131723D01*
X0176740Y0131431D01*
X0105481Y0131431D01*
X0104341Y0130960D01*
X0088760Y0115379D01*
X0088425Y0115468D01*
X0085406Y0115468D01*
X0085406Y0111500D01*
X0085406Y0111500D01*
X0085406Y0115468D01*
X0082387Y0115468D01*
X0081878Y0115332D01*
X0081422Y0115069D01*
X0081050Y0114697D01*
X0080786Y0114240D01*
X0080650Y0113732D01*
X0080650Y0111500D01*
X0085406Y0111500D01*
X0080650Y0111500D01*
X0080650Y0110431D01*
X0076417Y0110431D01*
X0075693Y0110731D01*
X0074274Y0110731D01*
X0074054Y0111114D01*
X0073957Y0111210D01*
X0074014Y0111267D01*
X0074711Y0112951D01*
X0074711Y0114773D01*
X0074014Y0116457D01*
X0073197Y0117274D01*
X0073197Y0134815D01*
X0073197Y0133439D02*
X0201021Y0133439D01*
X0199022Y0131441D02*
X0181845Y0131441D01*
X0183167Y0129442D02*
X0197024Y0129442D01*
X0195025Y0127444D02*
X0183259Y0127444D01*
X0181854Y0120431D02*
X0188013Y0120431D01*
X0158997Y0091416D01*
X0158997Y0107775D01*
X0159288Y0108066D01*
X0159897Y0109536D01*
X0159897Y0109631D01*
X0170140Y0109631D01*
X0170431Y0109340D01*
X0171902Y0108731D01*
X0173493Y0108731D01*
X0174963Y0109340D01*
X0176088Y0110466D01*
X0176697Y0111936D01*
X0176697Y0113527D01*
X0176088Y0114997D01*
X0174963Y0116123D01*
X0173493Y0116731D01*
X0171902Y0116731D01*
X0170431Y0116123D01*
X0170140Y0115831D01*
X0155581Y0115831D01*
X0160181Y0120431D01*
X0167740Y0120431D01*
X0168031Y0120140D01*
X0169502Y0119531D01*
X0171093Y0119531D01*
X0172563Y0120140D01*
X0173688Y0121266D01*
X0174121Y0122311D01*
X0175037Y0121931D01*
X0175630Y0121931D01*
X0175906Y0121266D01*
X0177031Y0120140D01*
X0178502Y0119531D01*
X0180093Y0119531D01*
X0181563Y0120140D01*
X0181854Y0120431D01*
X0185033Y0117451D02*
X0157201Y0117451D01*
X0159199Y0119450D02*
X0187031Y0119450D01*
X0183034Y0115453D02*
X0175633Y0115453D01*
X0176697Y0113454D02*
X0181036Y0113454D01*
X0179037Y0111456D02*
X0176498Y0111456D01*
X0177039Y0109457D02*
X0175080Y0109457D01*
X0175040Y0107459D02*
X0158997Y0107459D01*
X0158997Y0105460D02*
X0173042Y0105460D01*
X0171043Y0103462D02*
X0158997Y0103462D01*
X0158997Y0101463D02*
X0169045Y0101463D01*
X0167046Y0099465D02*
X0158997Y0099465D01*
X0158997Y0097466D02*
X0165048Y0097466D01*
X0163049Y0095467D02*
X0158997Y0095467D01*
X0158997Y0093469D02*
X0161051Y0093469D01*
X0159052Y0091470D02*
X0158997Y0091470D01*
X0163823Y0087473D02*
X0164196Y0087473D01*
X0163831Y0087323D02*
X0165302Y0087931D01*
X0165713Y0087931D01*
X0178297Y0100516D01*
X0178297Y0100927D01*
X0178906Y0102397D01*
X0179811Y0103302D01*
X0179811Y0103461D01*
X0160197Y0083847D01*
X0160197Y0080009D01*
X0160790Y0080009D01*
X0162630Y0081849D01*
X0162097Y0083136D01*
X0162097Y0084727D01*
X0162706Y0086197D01*
X0163831Y0087323D01*
X0162407Y0085475D02*
X0161825Y0085475D01*
X0162097Y0083476D02*
X0160197Y0083476D01*
X0160197Y0081478D02*
X0162260Y0081478D01*
X0168758Y0079209D02*
X0181691Y0092141D01*
X0181691Y0092085D01*
X0182388Y0090401D01*
X0183677Y0089112D01*
X0185361Y0088415D01*
X0186779Y0088415D01*
X0186779Y0086258D01*
X0187205Y0085229D01*
X0187993Y0084441D01*
X0189022Y0084015D01*
X0189397Y0084015D01*
X0189397Y0081016D01*
X0185341Y0076960D01*
X0184469Y0076088D01*
X0183997Y0074948D01*
X0183997Y0063515D01*
X0184469Y0062375D01*
X0206101Y0040743D01*
X0205222Y0038622D01*
X0205222Y0036314D01*
X0206105Y0034183D01*
X0207737Y0032551D01*
X0208977Y0032038D01*
X0208402Y0031745D01*
X0207765Y0031282D01*
X0207209Y0030725D01*
X0206746Y0030089D01*
X0206389Y0029387D01*
X0206146Y0028639D01*
X0206022Y0027862D01*
X0206022Y0027468D01*
X0206022Y0027075D01*
X0206124Y0026431D01*
X0175181Y0026431D01*
X0165597Y0036016D01*
X0165597Y0063087D01*
X0166534Y0064023D01*
X0167231Y0065707D01*
X0167231Y0067529D01*
X0166534Y0069213D01*
X0166444Y0069303D01*
X0168827Y0069303D01*
X0168827Y0073976D01*
X0169386Y0073976D01*
X0169386Y0069303D01*
X0171929Y0069303D01*
X0172438Y0069439D01*
X0172894Y0069703D01*
X0173266Y0070075D01*
X0173529Y0070531D01*
X0173666Y0071040D01*
X0173666Y0073976D01*
X0169386Y0073976D01*
X0169386Y0074535D01*
X0173666Y0074535D01*
X0173666Y0077472D01*
X0173529Y0077981D01*
X0173266Y0078437D01*
X0172894Y0078809D01*
X0172438Y0079072D01*
X0171929Y0079209D01*
X0169386Y0079209D01*
X0169386Y0074536D01*
X0168827Y0074536D01*
X0168827Y0079209D01*
X0168758Y0079209D01*
X0169029Y0079479D02*
X0187861Y0079479D01*
X0189397Y0081478D02*
X0171028Y0081478D01*
X0173026Y0083476D02*
X0189397Y0083476D01*
X0187103Y0085475D02*
X0175025Y0085475D01*
X0177023Y0087473D02*
X0186779Y0087473D01*
X0183317Y0089472D02*
X0179022Y0089472D01*
X0181020Y0091470D02*
X0181945Y0091470D01*
X0177246Y0099465D02*
X0175814Y0099465D01*
X0175248Y0097466D02*
X0173816Y0097466D01*
X0173249Y0095467D02*
X0171817Y0095467D01*
X0171251Y0093469D02*
X0169819Y0093469D01*
X0169252Y0091470D02*
X0167820Y0091470D01*
X0167254Y0089472D02*
X0165822Y0089472D01*
X0168827Y0077481D02*
X0169386Y0077481D01*
X0169386Y0075482D02*
X0168827Y0075482D01*
X0168827Y0073484D02*
X0169386Y0073484D01*
X0169386Y0071485D02*
X0168827Y0071485D01*
X0168827Y0069487D02*
X0169386Y0069487D01*
X0167231Y0067488D02*
X0183997Y0067488D01*
X0183997Y0065490D02*
X0167141Y0065490D01*
X0166002Y0063491D02*
X0184007Y0063491D01*
X0185352Y0061493D02*
X0165597Y0061493D01*
X0165597Y0059494D02*
X0187350Y0059494D01*
X0189349Y0057496D02*
X0165597Y0057496D01*
X0165597Y0055497D02*
X0191347Y0055497D01*
X0193346Y0053499D02*
X0165597Y0053499D01*
X0165597Y0051500D02*
X0195344Y0051500D01*
X0197343Y0049502D02*
X0165597Y0049502D01*
X0165597Y0047503D02*
X0199341Y0047503D01*
X0201340Y0045505D02*
X0165597Y0045505D01*
X0165597Y0043506D02*
X0203338Y0043506D01*
X0205337Y0041508D02*
X0165597Y0041508D01*
X0165597Y0039509D02*
X0205590Y0039509D01*
X0205222Y0037511D02*
X0165597Y0037511D01*
X0166101Y0035512D02*
X0205555Y0035512D01*
X0206774Y0033514D02*
X0168099Y0033514D01*
X0170098Y0031515D02*
X0208086Y0031515D01*
X0206455Y0029517D02*
X0172096Y0029517D01*
X0174095Y0027518D02*
X0206022Y0027518D01*
X0206022Y0027468D02*
X0214022Y0027468D01*
X0206022Y0027468D01*
X0209175Y0020006D02*
X0209706Y0020231D01*
X0174514Y0020231D01*
X0173281Y0020231D01*
X0172141Y0020703D01*
X0162497Y0030347D01*
X0158020Y0025870D01*
X0158593Y0025297D01*
X0159454Y0023219D01*
X0159454Y0020970D01*
X0158593Y0018892D01*
X0157003Y0017301D01*
X0154924Y0016440D01*
X0152675Y0016440D01*
X0150597Y0017301D01*
X0149006Y0018892D01*
X0148145Y0020970D01*
X0148145Y0023219D01*
X0148399Y0023831D01*
X0139515Y0023831D01*
X0139769Y0023219D01*
X0139769Y0020970D01*
X0138908Y0018892D01*
X0137317Y0017301D01*
X0135239Y0016440D01*
X0132990Y0016440D01*
X0130912Y0017301D01*
X0129321Y0018892D01*
X0128948Y0019793D01*
X0128606Y0018969D01*
X0128203Y0018566D01*
X0128233Y0018456D01*
X0128233Y0015913D01*
X0123560Y0015913D01*
X0123560Y0015354D01*
X0128233Y0015354D01*
X0128233Y0012811D01*
X0128096Y0012303D01*
X0127833Y0011847D01*
X0127461Y0011474D01*
X0127005Y0011211D01*
X0126496Y0011075D01*
X0123559Y0011075D01*
X0123559Y0015354D01*
X0123000Y0015354D01*
X0118327Y0015354D01*
X0118327Y0012811D01*
X0118463Y0012303D01*
X0118727Y0011847D01*
X0119099Y0011474D01*
X0119555Y0011211D01*
X0120064Y0011075D01*
X0123000Y0011075D01*
X0123000Y0015354D01*
X0123000Y0015913D01*
X0118327Y0015913D01*
X0118327Y0018456D01*
X0118357Y0018566D01*
X0117953Y0018969D01*
X0117885Y0019133D01*
X0116715Y0019133D01*
X0116002Y0018838D01*
X0110164Y0018838D01*
X0109135Y0019264D01*
X0108347Y0020052D01*
X0107965Y0020974D01*
X0107583Y0020052D01*
X0106795Y0019264D01*
X0105766Y0018838D01*
X0099928Y0018838D01*
X0099215Y0019133D01*
X0097566Y0019133D01*
X0096248Y0019679D01*
X0093471Y0022456D01*
X0092825Y0021810D01*
X0093062Y0021652D01*
X0095688Y0019989D01*
X0098900Y0018047D01*
X0098900Y0018047D01*
X0101159Y0016681D01*
X0103956Y0015065D01*
X0106371Y0013730D01*
X0106371Y0013730D01*
X0106866Y0013456D01*
X0107346Y0013191D01*
X0107346Y0013191D01*
X0109761Y0011855D01*
X0112725Y0010287D01*
X0115192Y0009035D01*
X0172727Y0009035D01*
X0175268Y0009595D01*
X0178097Y0010252D01*
X0181487Y0011095D01*
X0181487Y0011095D01*
X0183796Y0011670D01*
X0186624Y0012420D01*
X0188935Y0013081D01*
X0188935Y0013081D01*
X0192317Y0014050D01*
X0195129Y0014915D01*
X0198488Y0016037D01*
X0198488Y0016037D01*
X0200790Y0016805D01*
X0203574Y0017809D01*
X0209175Y0020006D01*
X0207946Y0019524D02*
X0158855Y0019524D01*
X0159454Y0021523D02*
X0171322Y0021523D01*
X0169324Y0023521D02*
X0159329Y0023521D01*
X0158371Y0025520D02*
X0167325Y0025520D01*
X0165327Y0027518D02*
X0159668Y0027518D01*
X0161666Y0029517D02*
X0163328Y0029517D01*
X0158894Y0035512D02*
X0156382Y0035512D01*
X0156382Y0034154D02*
X0156382Y0038141D01*
X0156246Y0038650D01*
X0155983Y0039106D01*
X0155610Y0039478D01*
X0155154Y0039742D01*
X0154646Y0039878D01*
X0150658Y0039878D01*
X0150658Y0034154D01*
X0148658Y0034154D01*
X0148658Y0039878D01*
X0144670Y0039878D01*
X0144161Y0039742D01*
X0143705Y0039478D01*
X0143333Y0039106D01*
X0143070Y0038650D01*
X0142933Y0038141D01*
X0142933Y0034154D01*
X0148658Y0034154D01*
X0148658Y0032154D01*
X0142933Y0032154D01*
X0142933Y0030031D01*
X0134874Y0030031D01*
X0134965Y0030371D01*
X0134965Y0033307D01*
X0130686Y0033307D01*
X0130686Y0033866D01*
X0134965Y0033866D01*
X0134965Y0036803D01*
X0134829Y0037311D01*
X0134565Y0037767D01*
X0134193Y0038140D01*
X0133737Y0038403D01*
X0133228Y0038539D01*
X0130685Y0038539D01*
X0130685Y0033866D01*
X0130126Y0033866D01*
X0130126Y0038539D01*
X0127584Y0038539D01*
X0127474Y0038510D01*
X0127071Y0038913D01*
X0126042Y0039339D01*
X0123712Y0039339D01*
X0124175Y0039802D01*
X0127971Y0039802D01*
X0129000Y0040229D01*
X0129787Y0041016D01*
X0130214Y0042045D01*
X0130214Y0042057D01*
X0130274Y0041830D01*
X0130538Y0041374D01*
X0130910Y0041002D01*
X0131366Y0040739D01*
X0131875Y0040602D01*
X0134811Y0040602D01*
X0134811Y0044882D01*
X0135370Y0044882D01*
X0135370Y0040602D01*
X0138307Y0040602D01*
X0138816Y0040739D01*
X0139272Y0041002D01*
X0139644Y0041374D01*
X0139907Y0041830D01*
X0140044Y0042339D01*
X0140044Y0043201D01*
X0141541Y0041703D01*
X0142681Y0041231D01*
X0155314Y0041231D01*
X0156453Y0041703D01*
X0157325Y0042575D01*
X0159397Y0044647D01*
X0159397Y0036016D01*
X0155535Y0032154D01*
X0150658Y0032154D01*
X0150658Y0034154D01*
X0156382Y0034154D01*
X0156895Y0033514D02*
X0150658Y0033514D01*
X0150658Y0035512D02*
X0148658Y0035512D01*
X0148658Y0033514D02*
X0130686Y0033514D01*
X0130685Y0033307D02*
X0130685Y0028904D01*
X0130469Y0028687D01*
X0128734Y0026952D01*
X0128606Y0027259D01*
X0127819Y0028047D01*
X0127139Y0028328D01*
X0127474Y0028663D01*
X0127584Y0028634D01*
X0130126Y0028634D01*
X0130126Y0033307D01*
X0130685Y0033307D01*
X0130685Y0031515D02*
X0130126Y0031515D01*
X0130126Y0029517D02*
X0130685Y0029517D01*
X0129300Y0027518D02*
X0128348Y0027518D01*
X0128836Y0019524D02*
X0129059Y0019524D01*
X0128233Y0017526D02*
X0130687Y0017526D01*
X0128233Y0013529D02*
X0190496Y0013529D01*
X0196962Y0015527D02*
X0123560Y0015527D01*
X0123000Y0015527D02*
X0103156Y0015527D01*
X0099762Y0017526D02*
X0118327Y0017526D01*
X0118327Y0013529D02*
X0106735Y0013529D01*
X0110376Y0011530D02*
X0119044Y0011530D01*
X0123000Y0011530D02*
X0123559Y0011530D01*
X0123559Y0013529D02*
X0123000Y0013529D01*
X0127516Y0011530D02*
X0183234Y0011530D01*
X0174978Y0009531D02*
X0114213Y0009531D01*
X0108875Y0019524D02*
X0107055Y0019524D01*
X0107965Y0024467D02*
X0107583Y0025389D01*
X0107209Y0025763D01*
X0107209Y0026461D01*
X0107209Y0027158D01*
X0107583Y0027532D01*
X0107965Y0028455D01*
X0108347Y0027532D01*
X0109135Y0026744D01*
X0109820Y0026461D01*
X0109135Y0026177D01*
X0108347Y0025389D01*
X0107965Y0024467D01*
X0107452Y0025520D02*
X0108478Y0025520D01*
X0107209Y0026461D02*
X0106110Y0026461D01*
X0107209Y0026461D01*
X0106110Y0026461D02*
X0106110Y0026461D01*
X0106110Y0026461D01*
X0107569Y0027518D02*
X0108361Y0027518D01*
X0107965Y0031947D02*
X0107583Y0032870D01*
X0106795Y0033657D01*
X0105766Y0034083D01*
X0104038Y0034083D01*
X0099702Y0038419D01*
X0099702Y0040599D01*
X0100676Y0040196D01*
X0107094Y0040196D01*
X0107094Y0038699D01*
X0107520Y0037670D01*
X0108308Y0036882D01*
X0109337Y0036456D01*
X0114265Y0036456D01*
X0111892Y0034083D01*
X0110164Y0034083D01*
X0109135Y0033657D01*
X0108347Y0032870D01*
X0107965Y0031947D01*
X0106939Y0033514D02*
X0108991Y0033514D01*
X0107680Y0037511D02*
X0100610Y0037511D01*
X0099702Y0039509D02*
X0107094Y0039509D01*
X0102609Y0035512D02*
X0113321Y0035512D01*
X0117284Y0037174D02*
X0117747Y0037637D01*
X0117791Y0037637D01*
X0117599Y0037174D01*
X0117284Y0037174D01*
X0117620Y0037511D02*
X0117738Y0037511D01*
X0123882Y0039509D02*
X0143759Y0039509D01*
X0142933Y0037511D02*
X0134714Y0037511D01*
X0134965Y0035512D02*
X0142933Y0035512D01*
X0142933Y0031515D02*
X0134965Y0031515D01*
X0130685Y0035512D02*
X0130126Y0035512D01*
X0130126Y0037511D02*
X0130685Y0037511D01*
X0130461Y0041508D02*
X0129991Y0041508D01*
X0134811Y0041508D02*
X0135370Y0041508D01*
X0135370Y0043506D02*
X0134811Y0043506D01*
X0135371Y0044882D02*
X0138363Y0044882D01*
X0137804Y0045441D01*
X0135371Y0045441D01*
X0135371Y0044882D01*
X0139721Y0041508D02*
X0142014Y0041508D01*
X0148658Y0039509D02*
X0150658Y0039509D01*
X0150658Y0037511D02*
X0148658Y0037511D01*
X0155557Y0039509D02*
X0159397Y0039509D01*
X0159397Y0037511D02*
X0156382Y0037511D01*
X0155981Y0041508D02*
X0159397Y0041508D01*
X0159397Y0043506D02*
X0158256Y0043506D01*
X0148270Y0023521D02*
X0139644Y0023521D01*
X0139769Y0021523D02*
X0148145Y0021523D01*
X0148744Y0019524D02*
X0139170Y0019524D01*
X0137542Y0017526D02*
X0150372Y0017526D01*
X0157227Y0017526D02*
X0202788Y0017526D01*
X0214022Y0027468D02*
X0214022Y0027468D01*
X0219068Y0032038D02*
X0220308Y0032551D01*
X0221939Y0034183D01*
X0222822Y0036314D01*
X0222822Y0038622D01*
X0221939Y0040754D01*
X0220308Y0042385D01*
X0220107Y0042468D01*
X0220308Y0042551D01*
X0221939Y0044183D01*
X0222822Y0046314D01*
X0222822Y0048622D01*
X0221939Y0050754D01*
X0220308Y0052385D01*
X0220107Y0052468D01*
X0220308Y0052551D01*
X0221939Y0054183D01*
X0222822Y0056314D01*
X0222822Y0058622D01*
X0221939Y0060754D01*
X0220308Y0062385D01*
X0220107Y0062468D01*
X0220308Y0062551D01*
X0221939Y0064183D01*
X0222822Y0066314D01*
X0222822Y0068622D01*
X0221939Y0070754D01*
X0220308Y0072385D01*
X0218176Y0073268D01*
X0215618Y0073268D01*
X0233681Y0091331D01*
X0234093Y0091331D01*
X0235563Y0091940D01*
X0236688Y0093066D01*
X0237297Y0094536D01*
X0237297Y0096127D01*
X0236764Y0097414D01*
X0238325Y0098975D01*
X0238553Y0099526D01*
X0239952Y0098127D01*
X0241192Y0097614D01*
X0240617Y0097321D01*
X0239980Y0096858D01*
X0239424Y0096301D01*
X0238961Y0095665D01*
X0238604Y0094964D01*
X0238361Y0094215D01*
X0238238Y0093438D01*
X0238238Y0093044D01*
X0238238Y0092651D01*
X0238361Y0091873D01*
X0238604Y0091125D01*
X0238961Y0090424D01*
X0239424Y0089787D01*
X0239980Y0089230D01*
X0240617Y0088768D01*
X0241192Y0088475D01*
X0239952Y0087961D01*
X0238321Y0086330D01*
X0237438Y0084198D01*
X0237438Y0081891D01*
X0238321Y0079759D01*
X0239952Y0078127D01*
X0241192Y0077614D01*
X0240617Y0077321D01*
X0239980Y0076858D01*
X0239424Y0076301D01*
X0238961Y0075665D01*
X0238604Y0074964D01*
X0238361Y0074215D01*
X0238238Y0073438D01*
X0238238Y0073044D01*
X0238238Y0072651D01*
X0238361Y0071873D01*
X0238604Y0071125D01*
X0238961Y0070424D01*
X0239424Y0069787D01*
X0239980Y0069230D01*
X0240617Y0068768D01*
X0241192Y0068475D01*
X0239952Y0067961D01*
X0238321Y0066330D01*
X0237438Y0064198D01*
X0237438Y0061891D01*
X0238321Y0059759D01*
X0239952Y0058127D01*
X0240153Y0058044D01*
X0239952Y0057961D01*
X0238321Y0056330D01*
X0237438Y0054198D01*
X0237438Y0051891D01*
X0238321Y0049759D01*
X0239631Y0048449D01*
X0221287Y0030105D01*
X0220836Y0030725D01*
X0220280Y0031282D01*
X0219643Y0031745D01*
X0219068Y0032038D01*
X0219959Y0031515D02*
X0222697Y0031515D01*
X0221270Y0033514D02*
X0224695Y0033514D01*
X0226694Y0035512D02*
X0222490Y0035512D01*
X0222822Y0037511D02*
X0228692Y0037511D01*
X0230691Y0039509D02*
X0222455Y0039509D01*
X0221185Y0041508D02*
X0232689Y0041508D01*
X0234688Y0043506D02*
X0221263Y0043506D01*
X0222487Y0045505D02*
X0236686Y0045505D01*
X0238685Y0047503D02*
X0222822Y0047503D01*
X0222458Y0049502D02*
X0238578Y0049502D01*
X0237599Y0051500D02*
X0221193Y0051500D01*
X0221255Y0053499D02*
X0237438Y0053499D01*
X0237976Y0055497D02*
X0222484Y0055497D01*
X0222822Y0057496D02*
X0239487Y0057496D01*
X0238585Y0059494D02*
X0222461Y0059494D01*
X0221200Y0061493D02*
X0237602Y0061493D01*
X0237438Y0063491D02*
X0221248Y0063491D01*
X0222481Y0065490D02*
X0237973Y0065490D01*
X0239479Y0067488D02*
X0222822Y0067488D01*
X0222464Y0069487D02*
X0239724Y0069487D01*
X0238487Y0071485D02*
X0221208Y0071485D01*
X0217832Y0075482D02*
X0238868Y0075482D01*
X0238245Y0073484D02*
X0215834Y0073484D01*
X0219831Y0077481D02*
X0240932Y0077481D01*
X0238600Y0079479D02*
X0221829Y0079479D01*
X0223828Y0081478D02*
X0237609Y0081478D01*
X0237438Y0083476D02*
X0225826Y0083476D01*
X0227825Y0085475D02*
X0237967Y0085475D01*
X0239464Y0087473D02*
X0229823Y0087473D01*
X0231822Y0089472D02*
X0239739Y0089472D01*
X0238492Y0091470D02*
X0234428Y0091470D01*
X0236855Y0093469D02*
X0238243Y0093469D01*
X0238238Y0093044D02*
X0246237Y0093044D01*
X0238238Y0093044D01*
X0238861Y0095467D02*
X0237297Y0095467D01*
X0236816Y0097466D02*
X0240902Y0097466D01*
X0238615Y0099465D02*
X0238528Y0099465D01*
X0232597Y0102016D02*
X0225088Y0094506D01*
X0224801Y0095197D01*
X0223513Y0096486D01*
X0221829Y0097183D01*
X0221428Y0097183D01*
X0217445Y0101166D01*
X0216122Y0101714D01*
X0206864Y0101714D01*
X0223325Y0118175D01*
X0223797Y0119315D01*
X0223797Y0137826D01*
X0224642Y0137477D01*
X0226233Y0137477D01*
X0227703Y0138085D01*
X0227994Y0138377D01*
X0231444Y0138377D01*
X0232583Y0138848D01*
X0237753Y0144018D01*
X0238625Y0144890D01*
X0238634Y0144911D01*
X0245902Y0152179D01*
X0246774Y0153051D01*
X0247246Y0154190D01*
X0247246Y0159003D01*
X0247858Y0159616D01*
X0247908Y0159736D01*
X0250597Y0157047D01*
X0250597Y0108759D01*
X0250391Y0108844D01*
X0242084Y0108844D01*
X0239952Y0107961D01*
X0239469Y0107478D01*
X0239088Y0108397D01*
X0237963Y0109523D01*
X0236493Y0110131D01*
X0234902Y0110131D01*
X0233431Y0109523D01*
X0232306Y0108397D01*
X0231697Y0106927D01*
X0231697Y0105336D01*
X0232306Y0103866D01*
X0232597Y0103575D01*
X0232597Y0102016D01*
X0232045Y0101463D02*
X0216728Y0101463D01*
X0219147Y0099465D02*
X0230046Y0099465D01*
X0228048Y0097466D02*
X0221145Y0097466D01*
X0224531Y0095467D02*
X0226049Y0095467D01*
X0232597Y0103462D02*
X0208611Y0103462D01*
X0210610Y0105460D02*
X0231697Y0105460D01*
X0231917Y0107459D02*
X0212608Y0107459D01*
X0214607Y0109457D02*
X0233366Y0109457D01*
X0238029Y0109457D02*
X0250597Y0109457D01*
X0250597Y0111456D02*
X0216605Y0111456D01*
X0218604Y0113454D02*
X0250597Y0113454D01*
X0250597Y0115453D02*
X0220602Y0115453D01*
X0222601Y0117451D02*
X0250597Y0117451D01*
X0250597Y0119450D02*
X0223797Y0119450D01*
X0223797Y0121448D02*
X0250597Y0121448D01*
X0250597Y0123447D02*
X0223797Y0123447D01*
X0223797Y0125445D02*
X0250597Y0125445D01*
X0250597Y0127444D02*
X0223797Y0127444D01*
X0223797Y0129442D02*
X0250597Y0129442D01*
X0250597Y0131441D02*
X0223797Y0131441D01*
X0223797Y0133439D02*
X0250597Y0133439D01*
X0250597Y0135438D02*
X0223797Y0135438D01*
X0223797Y0137436D02*
X0250597Y0137436D01*
X0250597Y0139435D02*
X0233170Y0139435D01*
X0235168Y0141433D02*
X0250597Y0141433D01*
X0250597Y0143432D02*
X0237167Y0143432D01*
X0239153Y0145430D02*
X0250597Y0145430D01*
X0250597Y0147429D02*
X0241152Y0147429D01*
X0243150Y0149427D02*
X0250597Y0149427D01*
X0250597Y0151426D02*
X0245149Y0151426D01*
X0246929Y0153424D02*
X0250597Y0153424D01*
X0250597Y0155423D02*
X0247246Y0155423D01*
X0247246Y0157421D02*
X0250223Y0157421D01*
X0248225Y0159420D02*
X0247662Y0159420D01*
X0252996Y0163417D02*
X0270295Y0163417D01*
X0270747Y0165415D02*
X0250997Y0165415D01*
X0248999Y0167414D02*
X0271199Y0167414D01*
X0271651Y0169412D02*
X0247000Y0169412D01*
X0245002Y0171411D02*
X0272103Y0171411D01*
X0272555Y0173409D02*
X0243003Y0173409D01*
X0241005Y0175408D02*
X0273007Y0175408D01*
X0273460Y0177406D02*
X0239006Y0177406D01*
X0237008Y0179405D02*
X0273912Y0179405D01*
X0274272Y0181403D02*
X0235009Y0181403D01*
X0233011Y0183402D02*
X0274580Y0183402D01*
X0274888Y0185400D02*
X0231012Y0185400D01*
X0229014Y0187399D02*
X0275196Y0187399D01*
X0269810Y0161418D02*
X0254994Y0161418D01*
X0256602Y0159420D02*
X0269223Y0159420D01*
X0268637Y0157421D02*
X0256797Y0157421D01*
X0256797Y0155423D02*
X0268050Y0155423D01*
X0267463Y0153424D02*
X0256797Y0153424D01*
X0256797Y0151426D02*
X0266797Y0151426D01*
X0266068Y0149427D02*
X0256797Y0149427D01*
X0256797Y0147429D02*
X0265340Y0147429D01*
X0264612Y0145430D02*
X0256797Y0145430D01*
X0256797Y0143432D02*
X0263884Y0143432D01*
X0263156Y0141433D02*
X0256797Y0141433D01*
X0256797Y0139435D02*
X0262428Y0139435D01*
X0261734Y0137436D02*
X0256797Y0137436D01*
X0256797Y0135438D02*
X0261059Y0135438D01*
X0260394Y0133439D02*
X0256797Y0133439D01*
X0256797Y0131441D02*
X0259728Y0131441D01*
X0259094Y0129442D02*
X0256797Y0129442D01*
X0256797Y0127444D02*
X0258513Y0127444D01*
X0257932Y0125445D02*
X0256797Y0125445D01*
X0256797Y0123447D02*
X0257376Y0123447D01*
X0256871Y0121448D02*
X0256797Y0121448D01*
X0256797Y0101937D02*
X0256862Y0101859D01*
X0256981Y0101630D01*
X0257215Y0101435D01*
X0257363Y0101257D01*
X0257529Y0100974D01*
X0257716Y0100833D01*
X0257866Y0100652D01*
X0258156Y0100500D01*
X0258604Y0100161D01*
X0258898Y0099940D01*
X0259126Y0099700D01*
X0259338Y0099607D01*
X0259522Y0099468D01*
X0259842Y0099384D01*
X0260036Y0099299D01*
X0260272Y0099135D01*
X0260541Y0099076D01*
X0260792Y0098965D01*
X0261080Y0098958D01*
X0261989Y0098760D01*
X0262210Y0098656D01*
X0262528Y0098642D01*
X0262839Y0098574D01*
X0263079Y0098617D01*
X0263229Y0098611D01*
X0263408Y0098554D01*
X0263781Y0098586D01*
X0264155Y0098569D01*
X0264331Y0098633D01*
X0265404Y0098724D01*
X0265552Y0098694D01*
X0265954Y0098771D01*
X0266363Y0098806D01*
X0266497Y0098876D01*
X0266676Y0098910D01*
X0266789Y0098896D01*
X0267220Y0099015D01*
X0267658Y0099099D01*
X0267753Y0099162D01*
X0269081Y0099527D01*
X0269174Y0099522D01*
X0269615Y0099674D01*
X0270065Y0099798D01*
X0270138Y0099855D01*
X0270429Y0099956D01*
X0270500Y0099955D01*
X0270953Y0100137D01*
X0271415Y0100297D01*
X0271468Y0100344D01*
X0273105Y0101001D01*
X0273164Y0101003D01*
X0273620Y0101208D01*
X0274084Y0101394D01*
X0274126Y0101435D01*
X0274567Y0101633D01*
X0274612Y0101636D01*
X0275073Y0101861D01*
X0275541Y0102072D01*
X0275572Y0102104D01*
X0276166Y0102394D01*
X0277537Y0103062D01*
X0277575Y0103066D01*
X0278036Y0103306D01*
X0278503Y0103533D01*
X0278528Y0103563D01*
X0279130Y0103876D01*
X0279159Y0103879D01*
X0279623Y0104133D01*
X0280092Y0104378D01*
X0280111Y0104400D01*
X0281747Y0105296D01*
X0282403Y0105655D01*
X0282429Y0105658D01*
X0282891Y0105922D01*
X0283357Y0106177D01*
X0283373Y0106198D01*
X0284137Y0106634D01*
X0284156Y0106637D01*
X0284620Y0106910D01*
X0285088Y0107177D01*
X0285099Y0107192D01*
X0285703Y0107548D01*
X0284897Y0105125D01*
X0283465Y0101259D01*
X0281649Y0096351D01*
X0279953Y0092228D01*
X0276358Y0084303D01*
X0274501Y0080594D01*
X0272812Y0077518D01*
X0272812Y0077518D01*
X0270588Y0073468D01*
X0268584Y0070146D01*
X0266175Y0066490D01*
X0264380Y0063767D01*
X0262243Y0060806D01*
X0260353Y0058402D01*
X0257776Y0055124D01*
X0255519Y0052496D01*
X0255038Y0051981D01*
X0255038Y0054198D01*
X0254155Y0056330D01*
X0254017Y0056467D01*
X0256325Y0058775D01*
X0256797Y0059915D01*
X0256797Y0101937D01*
X0256797Y0101463D02*
X0257182Y0101463D01*
X0256797Y0099465D02*
X0259534Y0099465D01*
X0256797Y0097466D02*
X0282061Y0097466D01*
X0282801Y0099465D02*
X0268853Y0099465D01*
X0274188Y0101463D02*
X0283541Y0101463D01*
X0283465Y0101259D02*
X0283465Y0101259D01*
X0284281Y0103462D02*
X0278355Y0103462D01*
X0281747Y0105296D02*
X0281747Y0105296D01*
X0282047Y0105460D02*
X0285008Y0105460D01*
X0285552Y0107459D02*
X0285674Y0107459D01*
X0281285Y0095467D02*
X0256797Y0095467D01*
X0256797Y0093469D02*
X0280464Y0093469D01*
X0279610Y0091470D02*
X0256797Y0091470D01*
X0256797Y0089472D02*
X0278703Y0089472D01*
X0277796Y0087473D02*
X0256797Y0087473D01*
X0256797Y0085475D02*
X0276890Y0085475D01*
X0275944Y0083476D02*
X0256797Y0083476D01*
X0256797Y0081478D02*
X0274944Y0081478D01*
X0273889Y0079479D02*
X0256797Y0079479D01*
X0256797Y0077481D02*
X0272792Y0077481D01*
X0271694Y0075482D02*
X0256797Y0075482D01*
X0256797Y0073484D02*
X0270597Y0073484D01*
X0269392Y0071485D02*
X0256797Y0071485D01*
X0256797Y0069487D02*
X0268150Y0069487D01*
X0266833Y0067488D02*
X0256797Y0067488D01*
X0256797Y0065490D02*
X0265516Y0065490D01*
X0266175Y0066490D02*
X0266175Y0066490D01*
X0264181Y0063491D02*
X0256797Y0063491D01*
X0256797Y0061493D02*
X0262739Y0061493D01*
X0261212Y0059494D02*
X0256623Y0059494D01*
X0255046Y0057496D02*
X0259641Y0057496D01*
X0260353Y0058402D02*
X0260353Y0058402D01*
X0258069Y0055497D02*
X0254499Y0055497D01*
X0255038Y0053499D02*
X0256380Y0053499D01*
X0250742Y0047390D02*
X0248448Y0045139D01*
X0246403Y0043291D01*
X0243533Y0040698D01*
X0241069Y0038657D01*
X0235967Y0034762D01*
X0233417Y0032976D01*
X0232031Y0032081D01*
X0247194Y0047244D01*
X0250391Y0047244D01*
X0250742Y0047390D01*
X0248821Y0045505D02*
X0245454Y0045505D01*
X0246641Y0043506D02*
X0243456Y0043506D01*
X0244429Y0041508D02*
X0241457Y0041508D01*
X0242098Y0039509D02*
X0239459Y0039509D01*
X0239567Y0037511D02*
X0237460Y0037511D01*
X0236950Y0035512D02*
X0235462Y0035512D01*
X0234185Y0033514D02*
X0233463Y0033514D01*
X0246403Y0043291D02*
X0246403Y0043291D01*
X0246237Y0073044D02*
X0238238Y0073044D01*
X0246237Y0073044D01*
X0246237Y0073044D01*
X0246237Y0093044D02*
X0246237Y0093044D01*
X0219014Y0088432D02*
X0202741Y0072160D01*
X0201869Y0071288D01*
X0201496Y0070388D01*
X0201106Y0069997D01*
X0200497Y0068527D01*
X0200497Y0066936D01*
X0201106Y0065466D01*
X0201397Y0065175D01*
X0201397Y0056315D01*
X0201869Y0055175D01*
X0206198Y0050846D01*
X0206105Y0050754D01*
X0205740Y0049872D01*
X0190197Y0065416D01*
X0190197Y0069731D01*
X0190293Y0069731D01*
X0191763Y0070340D01*
X0192888Y0071466D01*
X0193497Y0072936D01*
X0193497Y0073347D01*
X0204725Y0084575D01*
X0205197Y0085715D01*
X0205197Y0091148D01*
X0204725Y0092287D01*
X0203853Y0093160D01*
X0203480Y0093533D01*
X0204112Y0093533D01*
X0205796Y0094230D01*
X0206080Y0094514D01*
X0213915Y0094514D01*
X0216337Y0092092D01*
X0216337Y0091691D01*
X0217034Y0090007D01*
X0218323Y0088719D01*
X0219014Y0088432D01*
X0218055Y0087473D02*
X0205197Y0087473D01*
X0205197Y0089472D02*
X0217569Y0089472D01*
X0216428Y0091470D02*
X0205064Y0091470D01*
X0203544Y0093469D02*
X0214960Y0093469D01*
X0216057Y0085475D02*
X0205098Y0085475D01*
X0203626Y0083476D02*
X0214058Y0083476D01*
X0212060Y0081478D02*
X0201628Y0081478D01*
X0199629Y0079479D02*
X0210061Y0079479D01*
X0208063Y0077481D02*
X0197631Y0077481D01*
X0195632Y0075482D02*
X0206064Y0075482D01*
X0204066Y0073484D02*
X0193634Y0073484D01*
X0192896Y0071485D02*
X0202067Y0071485D01*
X0200895Y0069487D02*
X0190197Y0069487D01*
X0190197Y0067488D02*
X0200497Y0067488D01*
X0201096Y0065490D02*
X0190197Y0065490D01*
X0192121Y0063491D02*
X0201397Y0063491D01*
X0201397Y0061493D02*
X0194120Y0061493D01*
X0196119Y0059494D02*
X0201397Y0059494D01*
X0201397Y0057496D02*
X0198117Y0057496D01*
X0200116Y0055497D02*
X0201736Y0055497D01*
X0202114Y0053499D02*
X0203546Y0053499D01*
X0204113Y0051500D02*
X0205544Y0051500D01*
X0185863Y0077481D02*
X0173663Y0077481D01*
X0173666Y0075482D02*
X0184219Y0075482D01*
X0183997Y0073484D02*
X0173666Y0073484D01*
X0173666Y0071485D02*
X0183997Y0071485D01*
X0183997Y0069487D02*
X0172520Y0069487D01*
X0152797Y0070544D02*
X0151269Y0072072D01*
X0147913Y0073462D01*
X0144281Y0073462D01*
X0142664Y0072792D01*
X0142797Y0073115D01*
X0142797Y0097575D01*
X0143088Y0097866D01*
X0143697Y0099336D01*
X0143697Y0100927D01*
X0143340Y0101790D01*
X0151181Y0109631D01*
X0151897Y0109631D01*
X0151897Y0109536D01*
X0152506Y0108066D01*
X0152797Y0107775D01*
X0152797Y0070544D01*
X0152797Y0071485D02*
X0151856Y0071485D01*
X0152797Y0073484D02*
X0142797Y0073484D01*
X0142797Y0075482D02*
X0152797Y0075482D01*
X0152797Y0077481D02*
X0142797Y0077481D01*
X0142797Y0079479D02*
X0152797Y0079479D01*
X0152797Y0081478D02*
X0142797Y0081478D01*
X0142797Y0083476D02*
X0152797Y0083476D01*
X0152797Y0085475D02*
X0142797Y0085475D01*
X0142797Y0087473D02*
X0152797Y0087473D01*
X0152797Y0089472D02*
X0142797Y0089472D01*
X0142797Y0091470D02*
X0152797Y0091470D01*
X0152797Y0093469D02*
X0142797Y0093469D01*
X0142797Y0095467D02*
X0152797Y0095467D01*
X0152797Y0097466D02*
X0142797Y0097466D01*
X0143697Y0099465D02*
X0152797Y0099465D01*
X0152797Y0101463D02*
X0143475Y0101463D01*
X0145011Y0103462D02*
X0152797Y0103462D01*
X0152797Y0105460D02*
X0147010Y0105460D01*
X0149008Y0107459D02*
X0152797Y0107459D01*
X0151930Y0109457D02*
X0151007Y0109457D01*
X0146434Y0115453D02*
X0127602Y0115453D01*
X0127836Y0114425D02*
X0127217Y0113806D01*
X0126586Y0114437D01*
X0134981Y0122831D01*
X0153813Y0122831D01*
X0139613Y0108631D01*
X0138127Y0108631D01*
X0138127Y0112608D01*
X0137701Y0113637D01*
X0136913Y0114425D01*
X0135884Y0114851D01*
X0128865Y0114851D01*
X0127836Y0114425D01*
X0129601Y0117451D02*
X0148433Y0117451D01*
X0150431Y0119450D02*
X0131599Y0119450D01*
X0133598Y0121448D02*
X0152430Y0121448D01*
X0144436Y0113454D02*
X0137777Y0113454D01*
X0138127Y0111456D02*
X0142437Y0111456D01*
X0140439Y0109457D02*
X0138127Y0109457D01*
X0136597Y0096948D02*
X0136597Y0075016D01*
X0127626Y0066044D01*
X0127626Y0068602D01*
X0126743Y0070733D01*
X0125111Y0072365D01*
X0122979Y0073248D01*
X0120672Y0073248D01*
X0118540Y0072365D01*
X0116909Y0070733D01*
X0116026Y0068602D01*
X0116026Y0063721D01*
X0115797Y0063493D01*
X0115797Y0070647D01*
X0130925Y0085775D01*
X0131397Y0086915D01*
X0131397Y0096653D01*
X0135884Y0096653D01*
X0136597Y0096948D01*
X0136597Y0095467D02*
X0131397Y0095467D01*
X0131397Y0093469D02*
X0136597Y0093469D01*
X0136597Y0091470D02*
X0131397Y0091470D01*
X0131397Y0089472D02*
X0136597Y0089472D01*
X0136597Y0087473D02*
X0131397Y0087473D01*
X0130625Y0085475D02*
X0136597Y0085475D01*
X0136597Y0083476D02*
X0128626Y0083476D01*
X0126628Y0081478D02*
X0136597Y0081478D01*
X0136597Y0079479D02*
X0124629Y0079479D01*
X0122631Y0077481D02*
X0136597Y0077481D01*
X0136597Y0075482D02*
X0120632Y0075482D01*
X0118634Y0073484D02*
X0135066Y0073484D01*
X0133067Y0071485D02*
X0125991Y0071485D01*
X0127259Y0069487D02*
X0131069Y0069487D01*
X0129070Y0067488D02*
X0127626Y0067488D01*
X0131843Y0061493D02*
X0137390Y0061493D01*
X0136967Y0062515D02*
X0138357Y0059159D01*
X0140925Y0056591D01*
X0141798Y0056229D01*
X0140648Y0056229D01*
X0140417Y0056787D01*
X0139630Y0057575D01*
X0138601Y0058001D01*
X0131581Y0058001D01*
X0130552Y0057575D01*
X0129776Y0056798D01*
X0129000Y0057575D01*
X0128239Y0057890D01*
X0137298Y0066948D01*
X0136967Y0066148D01*
X0136967Y0062515D01*
X0136967Y0063491D02*
X0133841Y0063491D01*
X0135840Y0065490D02*
X0136967Y0065490D01*
X0138218Y0059494D02*
X0129844Y0059494D01*
X0130473Y0057496D02*
X0129079Y0057496D01*
X0139709Y0057496D02*
X0140020Y0057496D01*
X0117660Y0071485D02*
X0116635Y0071485D01*
X0116392Y0069487D02*
X0115797Y0069487D01*
X0115797Y0067488D02*
X0116026Y0067488D01*
X0116026Y0065490D02*
X0115797Y0065490D01*
X0109597Y0069153D02*
X0109597Y0071315D01*
X0109597Y0072548D01*
X0110069Y0073688D01*
X0118526Y0082145D01*
X0116909Y0083763D01*
X0116026Y0085894D01*
X0116026Y0094202D01*
X0116909Y0096333D01*
X0118268Y0097693D01*
X0118217Y0097707D01*
X0117761Y0097970D01*
X0117388Y0098343D01*
X0117125Y0098799D01*
X0116989Y0099308D01*
X0116989Y0101850D01*
X0121662Y0101850D01*
X0121662Y0102409D01*
X0116989Y0102409D01*
X0116989Y0104952D01*
X0117018Y0105062D01*
X0116615Y0105465D01*
X0116540Y0105646D01*
X0116540Y0103705D01*
X0111784Y0103705D01*
X0111784Y0103705D01*
X0116540Y0103705D01*
X0116540Y0101473D01*
X0116403Y0100964D01*
X0116140Y0100508D01*
X0115768Y0100136D01*
X0115312Y0099873D01*
X0114803Y0099736D01*
X0111784Y0099736D01*
X0111784Y0103705D01*
X0111784Y0103705D01*
X0111784Y0099736D01*
X0108765Y0099736D01*
X0108256Y0099873D01*
X0107800Y0100136D01*
X0107428Y0100508D01*
X0107164Y0100964D01*
X0107028Y0101473D01*
X0107028Y0102922D01*
X0106435Y0102676D01*
X0099810Y0102676D01*
X0098780Y0103103D01*
X0098437Y0103446D01*
X0098409Y0103418D01*
X0097380Y0102991D01*
X0090962Y0102991D01*
X0090962Y0101494D01*
X0090536Y0100465D01*
X0089748Y0099677D01*
X0088993Y0099365D01*
X0088993Y0099092D01*
X0089495Y0099300D01*
X0096514Y0099300D01*
X0097543Y0098874D01*
X0098331Y0098086D01*
X0098757Y0097057D01*
X0098757Y0096931D01*
X0099093Y0096931D01*
X0099527Y0096752D01*
X0100740Y0097965D01*
X0102872Y0098848D01*
X0105179Y0098848D01*
X0107311Y0097965D01*
X0108943Y0096333D01*
X0109826Y0094202D01*
X0109826Y0085894D01*
X0108943Y0083763D01*
X0107311Y0082131D01*
X0105179Y0081248D01*
X0102872Y0081248D01*
X0100740Y0082131D01*
X0099109Y0083763D01*
X0098757Y0084611D01*
X0098757Y0083345D01*
X0098331Y0082316D01*
X0097543Y0081528D01*
X0096514Y0081102D01*
X0089495Y0081102D01*
X0088466Y0081528D01*
X0087678Y0082316D01*
X0087480Y0082793D01*
X0087146Y0082459D01*
X0086690Y0082195D01*
X0086181Y0082059D01*
X0083244Y0082059D01*
X0083244Y0086338D01*
X0082685Y0086338D01*
X0082685Y0082059D01*
X0079749Y0082059D01*
X0079240Y0082195D01*
X0078784Y0082459D01*
X0078412Y0082831D01*
X0078148Y0083287D01*
X0078012Y0083796D01*
X0078012Y0086339D01*
X0082685Y0086339D01*
X0082685Y0086898D01*
X0078012Y0086898D01*
X0078012Y0089440D01*
X0078042Y0089550D01*
X0077638Y0089953D01*
X0077212Y0090982D01*
X0077212Y0097214D01*
X0077638Y0098244D01*
X0078426Y0099031D01*
X0079455Y0099457D01*
X0081595Y0099457D01*
X0081064Y0099677D01*
X0080276Y0100465D01*
X0079850Y0101494D01*
X0079850Y0104231D01*
X0078054Y0104231D01*
X0077163Y0103340D01*
X0075693Y0102731D01*
X0074102Y0102731D01*
X0074053Y0102752D01*
X0073681Y0102380D01*
X0073483Y0102265D01*
X0073878Y0102037D01*
X0074250Y0101665D01*
X0074514Y0101209D01*
X0074650Y0100700D01*
X0074650Y0097764D01*
X0070371Y0097764D01*
X0070371Y0097205D01*
X0074650Y0097205D01*
X0074650Y0094268D01*
X0074514Y0093760D01*
X0074250Y0093303D01*
X0073878Y0092931D01*
X0073422Y0092668D01*
X0072913Y0092531D01*
X0070370Y0092531D01*
X0070370Y0097205D01*
X0069811Y0097205D01*
X0069811Y0092531D01*
X0067269Y0092531D01*
X0067159Y0092561D01*
X0066756Y0092158D01*
X0065727Y0091731D01*
X0065330Y0091731D01*
X0065875Y0091506D01*
X0066470Y0090911D01*
X0066617Y0090996D01*
X0067126Y0091132D01*
X0069864Y0091132D01*
X0069864Y0086757D01*
X0070614Y0086757D01*
X0070614Y0091132D01*
X0073352Y0091132D01*
X0073861Y0090996D01*
X0074317Y0090732D01*
X0074689Y0090360D01*
X0074953Y0089904D01*
X0075089Y0089395D01*
X0075089Y0086757D01*
X0070614Y0086757D01*
X0070614Y0086007D01*
X0075089Y0086007D01*
X0075089Y0083369D01*
X0074953Y0082860D01*
X0074689Y0082404D01*
X0074317Y0082031D01*
X0073861Y0081768D01*
X0073352Y0081632D01*
X0070614Y0081632D01*
X0070614Y0086007D01*
X0069864Y0086007D01*
X0069864Y0081632D01*
X0069836Y0081632D01*
X0085780Y0065688D01*
X0085815Y0065722D01*
X0087582Y0067489D01*
X0088900Y0068035D01*
X0098226Y0068035D01*
X0098226Y0068602D01*
X0099109Y0070733D01*
X0100740Y0072365D01*
X0102872Y0073248D01*
X0105179Y0073248D01*
X0107311Y0072365D01*
X0108943Y0070733D01*
X0109597Y0069153D01*
X0109597Y0069487D02*
X0109459Y0069487D01*
X0109597Y0071485D02*
X0108191Y0071485D01*
X0109985Y0073484D02*
X0077984Y0073484D01*
X0079982Y0071485D02*
X0099860Y0071485D01*
X0098592Y0069487D02*
X0081981Y0069487D01*
X0083979Y0067488D02*
X0087581Y0067488D01*
X0079828Y0061493D02*
X0050896Y0061493D01*
X0049668Y0063491D02*
X0077829Y0063491D01*
X0075831Y0065490D02*
X0048499Y0065490D01*
X0047439Y0067488D02*
X0073832Y0067488D01*
X0071834Y0069487D02*
X0046433Y0069487D01*
X0045474Y0071485D02*
X0069835Y0071485D01*
X0067837Y0073484D02*
X0044620Y0073484D01*
X0043828Y0075482D02*
X0065838Y0075482D01*
X0063840Y0077481D02*
X0043067Y0077481D01*
X0042406Y0079479D02*
X0061841Y0079479D01*
X0056783Y0081478D02*
X0041824Y0081478D01*
X0042071Y0080629D02*
X0042071Y0080629D01*
X0041249Y0083476D02*
X0055789Y0083476D01*
X0055789Y0085475D02*
X0040769Y0085475D01*
X0040390Y0087473D02*
X0055789Y0087473D01*
X0055789Y0089472D02*
X0040011Y0089472D01*
X0039709Y0091470D02*
X0056968Y0091470D01*
X0055503Y0093469D02*
X0039498Y0093469D01*
X0039317Y0095467D02*
X0054208Y0095467D01*
X0054155Y0097466D02*
X0039176Y0097466D01*
X0039121Y0099465D02*
X0054997Y0099465D01*
X0054997Y0101463D02*
X0039134Y0101463D01*
X0039146Y0103462D02*
X0054997Y0103462D01*
X0054997Y0105460D02*
X0039159Y0105460D01*
X0039171Y0107459D02*
X0054997Y0107459D01*
X0054997Y0109457D02*
X0039184Y0109457D01*
X0039196Y0111456D02*
X0055207Y0111456D01*
X0056836Y0113454D02*
X0039209Y0113454D01*
X0039221Y0115453D02*
X0058829Y0115453D01*
X0058297Y0117451D02*
X0054469Y0117451D01*
X0055650Y0119450D02*
X0058762Y0119450D01*
X0069615Y0106653D02*
X0070174Y0106653D01*
X0070174Y0101980D01*
X0070370Y0101980D01*
X0070370Y0097764D01*
X0069811Y0097764D01*
X0069811Y0102437D01*
X0069615Y0102437D01*
X0069615Y0106653D01*
X0069615Y0105460D02*
X0070174Y0105460D01*
X0070174Y0103462D02*
X0069615Y0103462D01*
X0069811Y0101463D02*
X0070370Y0101463D01*
X0070370Y0099465D02*
X0069811Y0099465D01*
X0070371Y0097466D02*
X0077316Y0097466D01*
X0077212Y0095467D02*
X0074650Y0095467D01*
X0074346Y0093469D02*
X0077212Y0093469D01*
X0077212Y0091470D02*
X0065910Y0091470D01*
X0069811Y0093469D02*
X0070370Y0093469D01*
X0070370Y0095467D02*
X0069811Y0095467D01*
X0069864Y0089472D02*
X0070614Y0089472D01*
X0070614Y0087473D02*
X0069864Y0087473D01*
X0069864Y0085475D02*
X0070614Y0085475D01*
X0070614Y0083476D02*
X0069864Y0083476D01*
X0069990Y0081478D02*
X0088586Y0081478D01*
X0083244Y0083476D02*
X0082685Y0083476D01*
X0082685Y0085475D02*
X0083244Y0085475D01*
X0078012Y0085475D02*
X0075089Y0085475D01*
X0075089Y0087473D02*
X0078012Y0087473D01*
X0078021Y0089472D02*
X0075068Y0089472D01*
X0075089Y0083476D02*
X0078098Y0083476D01*
X0073987Y0077481D02*
X0113863Y0077481D01*
X0115861Y0079479D02*
X0071988Y0079479D01*
X0075985Y0075482D02*
X0111864Y0075482D01*
X0117860Y0081478D02*
X0105734Y0081478D01*
X0108656Y0083476D02*
X0117195Y0083476D01*
X0116199Y0085475D02*
X0109652Y0085475D01*
X0109826Y0087473D02*
X0116026Y0087473D01*
X0116026Y0089472D02*
X0109826Y0089472D01*
X0109826Y0091470D02*
X0116026Y0091470D01*
X0116026Y0093469D02*
X0109826Y0093469D01*
X0109301Y0095467D02*
X0116550Y0095467D01*
X0118041Y0097466D02*
X0107810Y0097466D01*
X0107031Y0101463D02*
X0090949Y0101463D01*
X0089234Y0099465D02*
X0116989Y0099465D01*
X0116989Y0101463D02*
X0116537Y0101463D01*
X0116540Y0103462D02*
X0116989Y0103462D01*
X0116620Y0105460D02*
X0116540Y0105460D01*
X0116189Y0106817D02*
X0116156Y0106873D01*
X0116189Y0106906D01*
X0116189Y0106817D01*
X0111784Y0103462D02*
X0111784Y0103462D01*
X0111784Y0101463D02*
X0111784Y0101463D01*
X0106228Y0112213D02*
X0106215Y0112213D01*
X0106207Y0112231D01*
X0106207Y0113986D01*
X0105510Y0115670D01*
X0104221Y0116958D01*
X0102538Y0117656D01*
X0100715Y0117656D01*
X0099163Y0117013D01*
X0107381Y0125231D01*
X0128613Y0125231D01*
X0121913Y0118531D01*
X0121502Y0118531D01*
X0120031Y0117923D01*
X0118906Y0116797D01*
X0118297Y0115327D01*
X0118297Y0114914D01*
X0117956Y0114772D01*
X0116881Y0114772D01*
X0116126Y0115527D01*
X0115097Y0115954D01*
X0108471Y0115954D01*
X0107442Y0115527D01*
X0106654Y0114740D01*
X0106228Y0113710D01*
X0106228Y0112213D01*
X0106207Y0113454D02*
X0106228Y0113454D01*
X0105600Y0115453D02*
X0107367Y0115453D01*
X0103032Y0117451D02*
X0119560Y0117451D01*
X0118349Y0115453D02*
X0116200Y0115453D01*
X0122831Y0119450D02*
X0101599Y0119450D01*
X0100221Y0117451D02*
X0099601Y0117451D01*
X0103598Y0121448D02*
X0124830Y0121448D01*
X0126828Y0123447D02*
X0105596Y0123447D01*
X0100825Y0127444D02*
X0073197Y0127444D01*
X0073197Y0129442D02*
X0102824Y0129442D01*
X0098827Y0125445D02*
X0073197Y0125445D01*
X0073197Y0123447D02*
X0096828Y0123447D01*
X0094830Y0121448D02*
X0073197Y0121448D01*
X0073197Y0119450D02*
X0092831Y0119450D01*
X0090833Y0117451D02*
X0073197Y0117451D01*
X0074430Y0115453D02*
X0082327Y0115453D01*
X0080650Y0113454D02*
X0074711Y0113454D01*
X0074092Y0111456D02*
X0080650Y0111456D01*
X0085406Y0111500D02*
X0085406Y0111500D01*
X0085406Y0113454D02*
X0085406Y0113454D01*
X0085406Y0115453D02*
X0085406Y0115453D01*
X0088484Y0115453D02*
X0088834Y0115453D01*
X0079850Y0103462D02*
X0077284Y0103462D01*
X0079863Y0101463D02*
X0074367Y0101463D01*
X0074650Y0099465D02*
X0081578Y0099465D01*
X0098588Y0097466D02*
X0100241Y0097466D01*
X0099395Y0083476D02*
X0098757Y0083476D01*
X0097423Y0081478D02*
X0102317Y0081478D01*
X0109597Y0059743D02*
X0109597Y0053473D01*
X0109337Y0053473D01*
X0108308Y0053047D01*
X0107520Y0052259D01*
X0107094Y0051230D01*
X0107094Y0049733D01*
X0100676Y0049733D01*
X0100096Y0049493D01*
X0100096Y0052411D01*
X0099669Y0053440D01*
X0098882Y0054228D01*
X0098314Y0054463D01*
X0098524Y0054585D01*
X0098896Y0054957D01*
X0099159Y0055413D01*
X0099296Y0055922D01*
X0099296Y0057976D01*
X0100740Y0056531D01*
X0102872Y0055648D01*
X0105179Y0055648D01*
X0107311Y0056531D01*
X0108943Y0058163D01*
X0109597Y0059743D01*
X0109597Y0059494D02*
X0109494Y0059494D01*
X0109597Y0057496D02*
X0108276Y0057496D01*
X0109597Y0055497D02*
X0099182Y0055497D01*
X0099296Y0057496D02*
X0099775Y0057496D01*
X0099611Y0053499D02*
X0109597Y0053499D01*
X0107206Y0051500D02*
X0100096Y0051500D01*
X0100096Y0049502D02*
X0100117Y0049502D01*
X0090460Y0043707D02*
X0090198Y0043598D01*
X0089795Y0043195D01*
X0089685Y0043224D01*
X0087142Y0043224D01*
X0087142Y0038551D01*
X0086583Y0038551D01*
X0086583Y0043224D01*
X0084040Y0043224D01*
X0083764Y0043150D01*
X0083764Y0043688D01*
X0083498Y0044332D01*
X0083925Y0044085D01*
X0084434Y0043949D01*
X0086977Y0043949D01*
X0086977Y0048622D01*
X0087536Y0048622D01*
X0087536Y0043949D01*
X0090079Y0043949D01*
X0090188Y0043978D01*
X0090460Y0043707D01*
X0090106Y0043506D02*
X0083764Y0043506D01*
X0082697Y0046264D02*
X0082683Y0046298D01*
X0080686Y0048295D01*
X0080252Y0048475D01*
X0080252Y0051220D01*
X0081228Y0051220D01*
X0082655Y0051220D01*
X0082697Y0051237D01*
X0082697Y0049181D01*
X0086977Y0049181D01*
X0086977Y0048622D01*
X0082697Y0048622D01*
X0082697Y0046264D01*
X0082697Y0047503D02*
X0081478Y0047503D01*
X0082697Y0049502D02*
X0080252Y0049502D01*
X0086977Y0047503D02*
X0087536Y0047503D01*
X0087536Y0045505D02*
X0086977Y0045505D01*
X0087142Y0041508D02*
X0086583Y0041508D01*
X0086583Y0039509D02*
X0087142Y0039509D01*
X0087142Y0037992D02*
X0087142Y0033319D01*
X0089685Y0033319D01*
X0089795Y0033348D01*
X0090198Y0032945D01*
X0090539Y0032804D01*
X0085396Y0032804D01*
X0084881Y0033319D01*
X0086583Y0033319D01*
X0086583Y0037992D01*
X0087142Y0037992D01*
X0087142Y0037511D02*
X0086583Y0037511D01*
X0086583Y0035512D02*
X0087142Y0035512D01*
X0087142Y0033514D02*
X0086583Y0033514D01*
X0082304Y0035896D02*
X0082304Y0037874D01*
X0081315Y0036885D01*
X0082304Y0035896D01*
X0082304Y0037511D02*
X0081940Y0037511D01*
X0070317Y0038897D02*
X0070317Y0038897D01*
X0070125Y0039509D02*
X0069646Y0039509D01*
X0069564Y0041508D02*
X0067481Y0041508D01*
X0065453Y0043506D02*
X0069564Y0043506D01*
X0070317Y0045505D02*
X0063516Y0045505D01*
X0063619Y0046631D02*
X0064502Y0046181D01*
X0065446Y0045875D01*
X0066425Y0045720D01*
X0067417Y0045720D01*
X0068396Y0045875D01*
X0069339Y0046181D01*
X0070223Y0046631D01*
X0071025Y0047214D01*
X0071376Y0047565D01*
X0066921Y0052019D01*
X0062466Y0047565D01*
X0062817Y0047214D01*
X0063619Y0046631D01*
X0062528Y0047503D02*
X0061626Y0047503D01*
X0061133Y0049502D02*
X0059865Y0049502D01*
X0058595Y0051000D02*
X0058595Y0051000D01*
X0058172Y0051500D02*
X0060624Y0051500D01*
X0060777Y0053499D02*
X0056538Y0053499D01*
X0055026Y0055497D02*
X0061660Y0055497D01*
X0062466Y0056474D02*
X0066921Y0052020D01*
X0066921Y0052020D01*
X0066921Y0052020D01*
X0062466Y0056474D01*
X0063443Y0055497D02*
X0063443Y0055497D01*
X0063792Y0057496D02*
X0053569Y0057496D01*
X0052175Y0059494D02*
X0079587Y0059494D01*
X0075620Y0057496D02*
X0070050Y0057496D01*
X0070398Y0055497D02*
X0070399Y0055497D01*
X0072181Y0055497D02*
X0073622Y0055497D01*
X0074632Y0056508D02*
X0074632Y0056508D01*
X0074963Y0056839D02*
X0074963Y0056839D01*
X0073077Y0053499D02*
X0073064Y0053499D01*
X0073077Y0049502D02*
X0072709Y0049502D01*
X0071851Y0047503D02*
X0071314Y0047503D01*
X0069439Y0049502D02*
X0069438Y0049502D01*
X0067440Y0051500D02*
X0067440Y0051500D01*
X0066921Y0052019D02*
X0066921Y0052019D01*
X0066402Y0051500D02*
X0066401Y0051500D01*
X0065441Y0053499D02*
X0065442Y0053499D01*
X0068400Y0053499D02*
X0068400Y0053499D01*
X0064403Y0049502D02*
X0064403Y0049502D01*
X0064532Y0044456D02*
X0064532Y0044456D01*
X0093186Y0032519D02*
X0095455Y0032519D01*
X0097685Y0030290D01*
X0097685Y0028561D01*
X0097806Y0028267D01*
X0094825Y0031249D01*
X0093816Y0032258D01*
X0093186Y0032519D01*
X0094559Y0031515D02*
X0096459Y0031515D01*
X0094825Y0031249D02*
X0094825Y0031249D01*
X0096557Y0029517D02*
X0097685Y0029517D01*
X0094404Y0021523D02*
X0093267Y0021523D01*
X0096457Y0019524D02*
X0096622Y0019524D01*
X0116346Y0026461D02*
X0117031Y0026744D01*
X0117819Y0027532D01*
X0118245Y0028561D01*
X0118245Y0028795D01*
X0118780Y0028260D01*
X0119018Y0028162D01*
X0118741Y0028047D01*
X0117953Y0027259D01*
X0117559Y0026308D01*
X0116715Y0026308D01*
X0116346Y0026461D01*
X0117805Y0027518D02*
X0118212Y0027518D01*
X0177813Y0101463D02*
X0178519Y0101463D01*
X0170315Y0109457D02*
X0159865Y0109457D01*
X0173764Y0121448D02*
X0175831Y0121448D01*
X0176750Y0131441D02*
X0073197Y0131441D01*
X0076020Y0134815D02*
X0079449Y0134815D01*
X0079957Y0134951D01*
X0080413Y0135215D01*
X0080786Y0135587D01*
X0081049Y0136043D01*
X0081185Y0136552D01*
X0081185Y0139193D01*
X0076020Y0139193D01*
X0076020Y0134815D01*
X0076020Y0135438D02*
X0075264Y0135438D01*
X0075264Y0137436D02*
X0076020Y0137436D01*
X0076020Y0139435D02*
X0134259Y0139435D01*
X0134799Y0137436D02*
X0081185Y0137436D01*
X0080637Y0135438D02*
X0169245Y0135438D01*
X0169012Y0143141D02*
X0160840Y0143115D01*
X0161097Y0143736D01*
X0161097Y0145327D01*
X0160488Y0146797D01*
X0159363Y0147923D01*
X0157893Y0148531D01*
X0157481Y0148531D01*
X0146697Y0159316D01*
X0146697Y0159727D01*
X0146088Y0161197D01*
X0144963Y0162323D01*
X0143493Y0162931D01*
X0141902Y0162931D01*
X0140431Y0162323D01*
X0139306Y0161197D01*
X0138697Y0159727D01*
X0138697Y0158136D01*
X0139306Y0156666D01*
X0140431Y0155540D01*
X0141902Y0154931D01*
X0142313Y0154931D01*
X0153097Y0144147D01*
X0153097Y0143736D01*
X0153365Y0143090D01*
X0141434Y0143052D01*
X0141434Y0146404D01*
X0141731Y0146700D01*
X0142428Y0148384D01*
X0142428Y0150207D01*
X0141731Y0151890D01*
X0140442Y0153179D01*
X0138758Y0153876D01*
X0137891Y0153876D01*
X0137891Y0165393D01*
X0161395Y0165393D01*
X0162714Y0165939D01*
X0165804Y0169029D01*
X0166247Y0167960D01*
X0167535Y0166671D01*
X0169219Y0165974D01*
X0171042Y0165974D01*
X0172725Y0166671D01*
X0173022Y0166968D01*
X0173265Y0166968D01*
X0173292Y0166957D01*
X0173978Y0166968D01*
X0174663Y0166968D01*
X0174690Y0166979D01*
X0174719Y0166979D01*
X0175106Y0167147D01*
X0175106Y0165127D01*
X0171148Y0165127D01*
X0170119Y0164700D01*
X0169331Y0163913D01*
X0168905Y0162884D01*
X0168905Y0156258D01*
X0169331Y0155229D01*
X0169989Y0154571D01*
X0169331Y0153913D01*
X0168905Y0152884D01*
X0168905Y0146258D01*
X0169331Y0145229D01*
X0169989Y0144571D01*
X0169331Y0143913D01*
X0169012Y0143141D01*
X0169132Y0143432D02*
X0160971Y0143432D01*
X0161055Y0145430D02*
X0169248Y0145430D01*
X0168905Y0147429D02*
X0159857Y0147429D01*
X0156585Y0149427D02*
X0168905Y0149427D01*
X0168905Y0151426D02*
X0154587Y0151426D01*
X0152588Y0153424D02*
X0169129Y0153424D01*
X0169251Y0155423D02*
X0150590Y0155423D01*
X0148591Y0157421D02*
X0168905Y0157421D01*
X0168905Y0159420D02*
X0146697Y0159420D01*
X0145867Y0161418D02*
X0168905Y0161418D01*
X0169126Y0163417D02*
X0137891Y0163417D01*
X0137891Y0161418D02*
X0139527Y0161418D01*
X0138697Y0159420D02*
X0137891Y0159420D01*
X0137891Y0157421D02*
X0138993Y0157421D01*
X0137891Y0155423D02*
X0140715Y0155423D01*
X0139849Y0153424D02*
X0143820Y0153424D01*
X0141923Y0151426D02*
X0145819Y0151426D01*
X0147817Y0149427D02*
X0142428Y0149427D01*
X0142032Y0147429D02*
X0149816Y0147429D01*
X0151814Y0145430D02*
X0141434Y0145430D01*
X0141434Y0143432D02*
X0153223Y0143432D01*
X0161449Y0165415D02*
X0175106Y0165415D01*
X0181690Y0165415D02*
X0182236Y0165415D01*
X0182133Y0165167D02*
X0182133Y0158935D01*
X0182560Y0157906D01*
X0183232Y0157234D01*
X0180849Y0154851D01*
X0180788Y0154851D01*
X0181165Y0155229D01*
X0181592Y0156258D01*
X0181592Y0161828D01*
X0181690Y0162066D01*
X0181690Y0169585D01*
X0182133Y0170028D01*
X0182133Y0166415D01*
X0182392Y0165791D01*
X0182133Y0165167D01*
X0182133Y0163417D02*
X0181690Y0163417D01*
X0181592Y0161418D02*
X0182133Y0161418D01*
X0182133Y0159420D02*
X0181592Y0159420D01*
X0181592Y0157421D02*
X0183044Y0157421D01*
X0181421Y0155423D02*
X0181246Y0155423D01*
X0185572Y0149427D02*
X0187973Y0149427D01*
X0187973Y0148433D02*
X0192252Y0148433D01*
X0192252Y0147874D01*
X0187973Y0147874D01*
X0187973Y0146190D01*
X0181563Y0146190D01*
X0181592Y0146258D01*
X0181592Y0147676D01*
X0183049Y0147676D01*
X0184367Y0148223D01*
X0185376Y0149232D01*
X0188227Y0152082D01*
X0188109Y0151878D01*
X0187973Y0151370D01*
X0187973Y0148433D01*
X0187973Y0147429D02*
X0181592Y0147429D01*
X0187570Y0151426D02*
X0187988Y0151426D01*
X0188997Y0152852D02*
X0190927Y0154783D01*
X0191474Y0156101D01*
X0191474Y0156724D01*
X0192425Y0157118D01*
X0193213Y0157906D01*
X0193531Y0158675D01*
X0193531Y0157478D01*
X0193957Y0156449D01*
X0194745Y0155662D01*
X0195774Y0155235D01*
X0198266Y0155235D01*
X0198728Y0155427D01*
X0198728Y0154596D01*
X0198038Y0153906D01*
X0196896Y0153906D01*
X0195867Y0153480D01*
X0195464Y0153077D01*
X0195354Y0153106D01*
X0192811Y0153106D01*
X0192811Y0148433D01*
X0192252Y0148433D01*
X0192252Y0153106D01*
X0189710Y0153106D01*
X0189201Y0152970D01*
X0188997Y0152852D01*
X0189569Y0153424D02*
X0195811Y0153424D01*
X0195322Y0155423D02*
X0191193Y0155423D01*
X0192728Y0157421D02*
X0193555Y0157421D01*
X0193639Y0161418D02*
X0193886Y0161418D01*
X0195207Y0163417D02*
X0213555Y0163417D01*
X0213631Y0163340D02*
X0215102Y0162731D01*
X0215513Y0162731D01*
X0216697Y0161547D01*
X0216697Y0161136D01*
X0217306Y0159666D01*
X0218431Y0158540D01*
X0219902Y0157931D01*
X0221493Y0157931D01*
X0222963Y0158540D01*
X0224088Y0159666D01*
X0224697Y0161136D01*
X0224697Y0162727D01*
X0224088Y0164197D01*
X0222963Y0165323D01*
X0221493Y0165931D01*
X0221081Y0165931D01*
X0219897Y0167116D01*
X0219897Y0167527D01*
X0219288Y0168997D01*
X0218163Y0170123D01*
X0216693Y0170731D01*
X0215102Y0170731D01*
X0213631Y0170123D01*
X0212506Y0168997D01*
X0211897Y0167527D01*
X0211897Y0165936D01*
X0212506Y0164466D01*
X0213631Y0163340D01*
X0212113Y0165415D02*
X0205490Y0165415D01*
X0206457Y0167414D02*
X0211897Y0167414D01*
X0212921Y0169412D02*
X0210362Y0169412D01*
X0212361Y0171411D02*
X0236234Y0171411D01*
X0238232Y0169412D02*
X0218873Y0169412D01*
X0219897Y0167414D02*
X0240231Y0167414D01*
X0242229Y0165415D02*
X0222739Y0165415D01*
X0224412Y0163417D02*
X0240774Y0163417D01*
X0240467Y0161418D02*
X0240357Y0161418D01*
X0235377Y0161418D02*
X0224697Y0161418D01*
X0223842Y0159420D02*
X0234022Y0159420D01*
X0233768Y0157421D02*
X0205603Y0157421D01*
X0205627Y0159420D02*
X0217552Y0159420D01*
X0216697Y0161418D02*
X0205272Y0161418D01*
X0205312Y0155423D02*
X0219156Y0155423D01*
X0217069Y0153424D02*
X0205312Y0153424D01*
X0205371Y0151426D02*
X0216697Y0151426D01*
X0217345Y0149427D02*
X0205371Y0149427D01*
X0205371Y0147429D02*
X0213888Y0147429D01*
X0212188Y0145430D02*
X0205371Y0145430D01*
X0204762Y0143432D02*
X0211013Y0143432D01*
X0209015Y0141433D02*
X0200019Y0141433D01*
X0197842Y0139435D02*
X0207016Y0139435D01*
X0205018Y0137436D02*
X0181592Y0137436D01*
X0181252Y0135438D02*
X0203019Y0135438D01*
X0207790Y0131441D02*
X0217597Y0131441D01*
X0217597Y0133439D02*
X0209789Y0133439D01*
X0211788Y0135438D02*
X0217597Y0135438D01*
X0217597Y0137436D02*
X0213786Y0137436D01*
X0215785Y0139435D02*
X0217597Y0139435D01*
X0217597Y0140306D02*
X0217597Y0121216D01*
X0205024Y0108642D01*
X0204218Y0109448D01*
X0202748Y0110056D01*
X0201157Y0110056D01*
X0199686Y0109448D01*
X0199395Y0109156D01*
X0198009Y0109156D01*
X0198009Y0109892D01*
X0197583Y0110921D01*
X0196795Y0111708D01*
X0195766Y0112135D01*
X0189534Y0112135D01*
X0188910Y0111876D01*
X0188426Y0112076D01*
X0193663Y0117313D01*
X0194102Y0117131D01*
X0195693Y0117131D01*
X0197163Y0117740D01*
X0198288Y0118866D01*
X0198897Y0120336D01*
X0198897Y0121927D01*
X0198716Y0122366D01*
X0216281Y0139931D01*
X0216693Y0139931D01*
X0217597Y0140306D01*
X0217597Y0129442D02*
X0205792Y0129442D01*
X0203793Y0127444D02*
X0217597Y0127444D01*
X0217597Y0125445D02*
X0201795Y0125445D01*
X0199796Y0123447D02*
X0217597Y0123447D01*
X0217597Y0121448D02*
X0198897Y0121448D01*
X0198530Y0119450D02*
X0215831Y0119450D01*
X0213833Y0117451D02*
X0196465Y0117451D01*
X0191802Y0115453D02*
X0211834Y0115453D01*
X0209836Y0113454D02*
X0189804Y0113454D01*
X0197048Y0111456D02*
X0207837Y0111456D01*
X0205839Y0109457D02*
X0204195Y0109457D01*
X0199709Y0109457D02*
X0198009Y0109457D01*
X0198009Y0102956D02*
X0199338Y0102956D01*
X0198541Y0102160D01*
X0197669Y0101287D01*
X0197640Y0101218D01*
X0197299Y0101559D01*
X0197583Y0101843D01*
X0198009Y0102872D01*
X0198009Y0102956D01*
X0197845Y0101463D02*
X0197395Y0101463D01*
X0192811Y0149427D02*
X0192252Y0149427D01*
X0192252Y0151426D02*
X0192811Y0151426D01*
X0198718Y0155423D02*
X0198728Y0155423D01*
X0182133Y0167414D02*
X0181690Y0167414D01*
X0181690Y0169412D02*
X0182133Y0169412D01*
X0186996Y0174891D02*
X0191140Y0174891D01*
X0191140Y0175010D01*
X0191193Y0175137D01*
X0187242Y0175137D01*
X0186996Y0174891D01*
X0166793Y0167414D02*
X0164188Y0167414D01*
X0213297Y0190417D02*
X0213297Y0190927D01*
X0212688Y0192397D01*
X0212054Y0193031D01*
X0212813Y0193031D01*
X0215127Y0190717D01*
X0214022Y0190717D01*
X0213297Y0190417D01*
X0213103Y0191396D02*
X0214449Y0191396D01*
X0224620Y0181403D02*
X0226241Y0181403D01*
X0228240Y0179405D02*
X0222755Y0179405D01*
X0222485Y0177406D02*
X0230238Y0177406D01*
X0232237Y0175408D02*
X0222485Y0175408D01*
X0221086Y0173409D02*
X0234235Y0173409D01*
X0217811Y0173409D02*
X0217252Y0173409D01*
X0217252Y0175408D02*
X0217811Y0175408D01*
X0217811Y0177406D02*
X0217252Y0177406D01*
X0222238Y0155423D02*
X0232581Y0155423D01*
X0231394Y0153424D02*
X0224326Y0153424D01*
X0224697Y0151426D02*
X0230207Y0151426D01*
X0238936Y0153982D02*
X0239591Y0154636D01*
X0239238Y0154490D01*
X0238936Y0153982D01*
X0161013Y0296431D02*
X0156781Y0296431D01*
X0158897Y0298547D01*
X0161013Y0296431D01*
X0160128Y0297317D02*
X0157667Y0297317D01*
X0088236Y0237362D02*
X0073431Y0237362D01*
X0072062Y0235363D02*
X0086238Y0235363D01*
X0084239Y0233365D02*
X0070700Y0233365D01*
X0071859Y0235067D02*
X0071859Y0235067D01*
X0069421Y0231464D02*
X0069421Y0231464D01*
X0069355Y0231366D02*
X0082241Y0231366D01*
X0080242Y0229368D02*
X0068018Y0229368D01*
X0066701Y0227369D02*
X0078244Y0227369D01*
X0076245Y0225371D02*
X0065397Y0225371D01*
X0062784Y0221281D02*
X0062784Y0221281D01*
X0074821Y0239360D02*
X0085715Y0239360D01*
X0083107Y0241359D02*
X0076219Y0241359D01*
X0077632Y0243357D02*
X0081693Y0243357D01*
X0080865Y0245356D02*
X0079056Y0245356D01*
X0080486Y0247354D02*
X0080717Y0247354D01*
X0065797Y0177406D02*
X0065397Y0177406D01*
X0065397Y0175408D02*
X0065797Y0175408D01*
X0065797Y0173409D02*
X0065397Y0173409D01*
X0065397Y0171411D02*
X0065797Y0171411D01*
X0065797Y0169412D02*
X0065397Y0169412D01*
X0065397Y0167414D02*
X0065797Y0167414D01*
X0081765Y0163417D02*
X0104769Y0163417D01*
X0108920Y0157421D02*
X0114968Y0157421D01*
X0114968Y0155423D02*
X0081639Y0155423D01*
X0081762Y0153424D02*
X0114968Y0153424D01*
X0114968Y0151426D02*
X0081985Y0151426D01*
X0081985Y0149427D02*
X0114968Y0149427D01*
X0114968Y0147429D02*
X0081985Y0147429D01*
X0081643Y0145430D02*
X0114968Y0145430D01*
X0114968Y0143432D02*
X0080857Y0143432D01*
X0081185Y0141433D02*
X0115287Y0141433D01*
X0114968Y0159420D02*
X0110919Y0159420D01*
X0112917Y0161418D02*
X0114968Y0161418D01*
X0114916Y0163417D02*
X0114968Y0163417D01*
X0046150Y0125445D02*
X0045150Y0125445D01*
X0045150Y0123447D02*
X0046150Y0123447D01*
X0046150Y0121448D02*
X0045150Y0121448D01*
X0045150Y0119450D02*
X0046150Y0119450D01*
X0046150Y0117451D02*
X0045150Y0117451D01*
D32*
X0089847Y0247531D03*
X0146097Y0064331D03*
X0265947Y0247496D03*
M02*
