G75*
%MOIN*%
%OFA0B0*%
%FSLAX25Y25*%
%IPPOS*%
%LPD*%
%AMOC8*
5,1,8,0,0,1.08239X$1,22.5*
%
%ADD10C,0.00000*%
D10*
X0049225Y0058865D02*
X0046667Y0063028D01*
X0045489Y0065136D01*
X0044414Y0067269D01*
X0043340Y0069403D01*
X0042369Y0071562D01*
X0041504Y0073747D01*
X0040639Y0075932D01*
X0039879Y0078143D01*
X0039227Y0080380D01*
X0038575Y0082617D01*
X0038032Y0084880D01*
X0037164Y0089457D01*
X0036840Y0091771D01*
X0036628Y0094111D01*
X0036417Y0096452D01*
X0036317Y0098818D01*
X0036332Y0101210D01*
X0036356Y0105023D01*
X0036380Y0108837D01*
X0036451Y0120278D01*
X0036475Y0124091D01*
X0036523Y0131719D01*
X0036547Y0135532D01*
X0036594Y0143159D01*
X0036618Y0146973D01*
X0036690Y0158414D01*
X0036713Y0162227D01*
X0036722Y0163669D01*
X0036796Y0165129D01*
X0036929Y0166605D01*
X0037062Y0168081D01*
X0037256Y0169574D01*
X0037755Y0172588D01*
X0038061Y0174109D01*
X0038418Y0175642D01*
X0038776Y0177176D01*
X0038775Y0177166D02*
X0038771Y0177166D01*
X0038775Y0177166D02*
X0039183Y0178717D01*
X0039186Y0178721D02*
X0039644Y0180277D01*
X0040101Y0181833D01*
X0040607Y0183399D01*
X0041157Y0184973D01*
X0041706Y0186547D01*
X0042300Y0188130D01*
X0042934Y0189718D01*
X0043567Y0191306D01*
X0044241Y0192900D01*
X0044950Y0194499D01*
X0045659Y0196097D01*
X0046405Y0197699D01*
X0047181Y0199303D01*
X0047958Y0200907D01*
X0048767Y0202513D01*
X0049604Y0204119D01*
X0050440Y0205725D01*
X0051305Y0207331D01*
X0052192Y0208934D01*
X0053080Y0210537D01*
X0053992Y0212139D01*
X0054923Y0213735D01*
X0055855Y0215332D01*
X0056806Y0216925D01*
X0057772Y0218511D01*
X0058739Y0220097D01*
X0059721Y0221677D01*
X0060715Y0223248D01*
X0061709Y0224820D01*
X0062714Y0226383D01*
X0063727Y0227935D01*
X0064740Y0229487D01*
X0065760Y0231029D01*
X0066784Y0232558D01*
X0067808Y0234088D01*
X0068835Y0235604D01*
X0069862Y0237106D01*
X0070890Y0238611D01*
X0071935Y0240120D01*
X0074055Y0243149D01*
X0075129Y0244669D01*
X0076216Y0246195D01*
X0077303Y0247721D01*
X0078402Y0249253D01*
X0079511Y0250791D01*
X0080620Y0252329D01*
X0081739Y0253872D01*
X0082866Y0255422D01*
X0083992Y0256972D01*
X0085126Y0258529D01*
X0086265Y0260092D01*
X0087405Y0261655D01*
X0088549Y0263224D01*
X0089696Y0264801D01*
X0090844Y0266377D01*
X0091994Y0267960D01*
X0094295Y0271141D01*
X0095446Y0272739D01*
X0096595Y0274344D01*
X0097744Y0275949D01*
X0098891Y0277561D01*
X0100033Y0279181D01*
X0101176Y0280801D01*
X0102314Y0282429D01*
X0103446Y0284065D01*
X0104578Y0285701D01*
X0105703Y0287345D01*
X0106819Y0288997D01*
X0107935Y0290649D01*
X0109041Y0292309D01*
X0110137Y0293978D01*
X0111232Y0295647D01*
X0112316Y0297324D01*
X0113386Y0299010D01*
X0114456Y0300696D01*
X0115512Y0302391D01*
X0116552Y0304096D01*
X0117592Y0305800D01*
X0118616Y0307513D01*
X0119621Y0309235D01*
X0120627Y0310958D01*
X0121613Y0312690D01*
X0123545Y0316173D01*
X0124502Y0317901D01*
X0126391Y0321334D01*
X0127323Y0323040D01*
X0128239Y0324738D01*
X0129155Y0326436D01*
X0130055Y0328126D01*
X0131816Y0331497D01*
X0132676Y0333178D01*
X0133513Y0334857D01*
X0134350Y0336537D01*
X0135163Y0338214D01*
X0135950Y0339893D01*
X0136736Y0341572D01*
X0137495Y0343253D01*
X0138951Y0346623D01*
X0139648Y0348312D01*
X0140311Y0350010D01*
X0140974Y0351707D01*
X0141602Y0353412D01*
X0142192Y0355127D01*
X0142782Y0356843D01*
X0143333Y0358569D01*
X0144352Y0362049D01*
X0144820Y0363803D01*
X0145242Y0365574D01*
X0145664Y0367344D01*
X0146040Y0369132D01*
X0146694Y0372747D01*
X0146972Y0374574D01*
X0147196Y0376425D01*
X0147421Y0378276D01*
X0147592Y0380149D01*
X0147707Y0382049D01*
X0147821Y0383949D01*
X0147879Y0385875D01*
X0147877Y0387830D01*
X0147874Y0389785D01*
X0147811Y0391769D01*
X0147684Y0393786D01*
X0147557Y0395802D01*
X0147366Y0397851D01*
X0147107Y0399936D01*
X0149131Y0398453D01*
X0151591Y0396761D01*
X0154411Y0394854D01*
X0157231Y0392947D01*
X0160410Y0390825D01*
X0163874Y0388481D01*
X0167337Y0386137D01*
X0171083Y0383571D01*
X0175037Y0380777D01*
X0178991Y0377984D01*
X0183152Y0374961D01*
X0187443Y0371705D01*
X0191734Y0368448D01*
X0196156Y0364956D01*
X0200632Y0361224D01*
X0205108Y0357491D01*
X0209638Y0353517D01*
X0214146Y0349295D01*
X0218654Y0345074D01*
X0223140Y0340605D01*
X0227527Y0335881D01*
X0231914Y0331158D01*
X0236203Y0326180D01*
X0240316Y0320942D01*
X0244429Y0315704D01*
X0248368Y0310205D01*
X0255741Y0298673D01*
X0259176Y0292639D01*
X0265391Y0280026D01*
X0268170Y0273445D01*
X0272920Y0259724D01*
X0274890Y0252583D01*
X0277870Y0237729D01*
X0278879Y0230015D01*
X0279783Y0214001D01*
X0279678Y0205701D01*
X0278939Y0197101D01*
X0278200Y0188501D01*
X0276827Y0179602D01*
X0274744Y0170396D01*
X0272662Y0161191D01*
X0269869Y0151680D01*
X0266290Y0141856D01*
X0265184Y0138821D01*
X0264191Y0135982D01*
X0263308Y0133329D01*
X0262425Y0130677D01*
X0261653Y0128213D01*
X0260323Y0123642D01*
X0259767Y0121536D01*
X0258865Y0117666D01*
X0258520Y0115903D01*
X0258279Y0114304D01*
X0258037Y0112704D01*
X0257900Y0111268D01*
X0257863Y0109988D01*
X0257827Y0108708D01*
X0257892Y0107583D01*
X0258056Y0106606D01*
X0258220Y0105629D01*
X0258484Y0104800D01*
X0258844Y0104111D01*
X0259205Y0103421D01*
X0259662Y0102872D01*
X0260214Y0102454D01*
X0260766Y0102037D01*
X0261413Y0101752D01*
X0262892Y0101429D01*
X0263725Y0101391D01*
X0264647Y0101470D01*
X0265570Y0101549D01*
X0266582Y0101744D01*
X0268784Y0102350D01*
X0269974Y0102761D01*
X0272524Y0103785D01*
X0273885Y0104397D01*
X0275330Y0105101D01*
X0276775Y0105806D01*
X0278303Y0106603D01*
X0279914Y0107484D01*
X0281524Y0108366D01*
X0283215Y0109332D01*
X0286758Y0111417D01*
X0288608Y0112537D01*
X0290535Y0113725D01*
X0289087Y0108846D01*
X0287539Y0104197D01*
X0285898Y0099764D01*
X0284257Y0095332D01*
X0282524Y0091117D01*
X0278886Y0083098D01*
X0276981Y0079293D01*
X0274998Y0075682D01*
X0273015Y0072070D01*
X0270953Y0068652D01*
X0268819Y0065414D01*
X0266685Y0062177D01*
X0264480Y0059120D01*
X0262210Y0056233D01*
X0259940Y0053346D01*
X0257605Y0050627D01*
X0255212Y0048066D01*
X0252819Y0045504D01*
X0250368Y0043100D01*
X0247867Y0040840D01*
X0245365Y0038580D01*
X0242813Y0036466D01*
X0237620Y0032501D01*
X0234980Y0030652D01*
X0229625Y0027195D01*
X0226911Y0025587D01*
X0221423Y0022589D01*
X0218649Y0021199D01*
X0213054Y0018611D01*
X0210234Y0017414D01*
X0204561Y0015188D01*
X0201708Y0014160D01*
X0198846Y0013205D01*
X0195985Y0012249D01*
X0193114Y0011366D01*
X0190241Y0010543D01*
X0187368Y0009720D01*
X0184492Y0008958D01*
X0181622Y0008244D01*
X0178751Y0007530D01*
X0175886Y0006864D01*
X0173032Y0006235D01*
X0114522Y0006235D01*
X0111436Y0007801D01*
X0108429Y0009392D01*
X0105503Y0011010D01*
X0102578Y0012627D01*
X0099734Y0014270D01*
X0096974Y0015939D01*
X0094214Y0017608D01*
X0091538Y0019303D01*
X0088948Y0021024D01*
X0086358Y0022744D01*
X0083854Y0024490D01*
X0081438Y0026262D01*
X0079022Y0028034D01*
X0076694Y0029832D01*
X0074457Y0031656D01*
X0072219Y0033480D01*
X0070072Y0035329D01*
X0068018Y0037204D01*
X0065963Y0039080D01*
X0064001Y0040981D01*
X0062134Y0042908D01*
X0060267Y0044834D01*
X0058494Y0046787D01*
X0056819Y0048766D01*
X0055143Y0050744D01*
X0053564Y0052748D01*
X0050605Y0056809D01*
X0049225Y0058865D01*
X0039178Y0178704D02*
X0039191Y0178745D01*
M02*
