%
M48
M72
T01C0.01200
T02C0.02362
T03C0.03346
T04C0.03937
T05C0.04000
T06C0.08661
%
T01
X58097Y96531
X62297Y117531
X74897Y106731
X98297Y92931
X122297Y114531
X139697Y100131
X155897Y110331
X172697Y112731
X170297Y123531
X175832Y125931
X179297Y123531
X179297Y128331
X186772Y146041
X194897Y121131
X201952Y106056
X184097Y95931
X182297Y100131
X166097Y83931
X189497Y73731
X204497Y67731
X206897Y64131
X233297Y95331
X235697Y106131
X225437Y141477
X226036Y146736
X220697Y151731
X215897Y143931
X220697Y161931
X215897Y166731
X204497Y170931
X209297Y190131
X224557Y182396
X226427Y192681
X244467Y161881
X237867Y158251
X166697Y236331
X163697Y196131
X142697Y158931
X157097Y144531
X134297Y236931
X132497Y248331
X117341Y270390
X112890Y275312
X116256Y280800
X112542Y286024
X114551Y291927
X109022Y280777
X104768Y275766
X108198Y269852
X99519Y269916
X124674Y310823
X128831Y316068
X129425Y310922
X130712Y321216
X133582Y326956
X135958Y321116
X140016Y326659
X141600Y321116
X146054Y326956
X147440Y332202
X152191Y326857
X152488Y332202
X151696Y338735
X146648Y338735
X141006Y338735
X141996Y332202
X137146Y332302
X147935Y321314
X153082Y321216
X158897Y302931
X151097Y295131
X169697Y293331
X188910Y281391
X192676Y286078
X195473Y281464
X199110Y285880
X202567Y281419
X205228Y285485
X209265Y281464
X212592Y285306
X216630Y281307
X219897Y285504
X223856Y281228
X226547Y285504
X230013Y281110
X232942Y285702
X236388Y281010
X239970Y285763
X235833Y291027
X236724Y297263
X235932Y304686
X235239Y310625
X241475Y310922
X243752Y304686
X243455Y297341
X243613Y291027
X246828Y285835
X243316Y280891
X250861Y280659
X254289Y286063
X250977Y291106
X250067Y297184
X258899Y280659
X233457Y317157
X231082Y322799
X224648Y322403
X224153Y328738
X221480Y333192
X219204Y337943
X214254Y332895
X213265Y337745
X207029Y337943
X207919Y332796
X210988Y328541
X216531Y328243
X218115Y322304
X218610Y316266
X219501Y309834
X211681Y309834
X211483Y316366
X211483Y322205
X204653Y328441
X200793Y332895
X200793Y337745
X193666Y338141
X193864Y332895
X198120Y328342
X187430Y338141
X225935Y316563
X227518Y310031
X86897Y187731
X52097Y196131
T02
X56744Y78823
X76430Y91815
X76036Y111894
X70130Y113862
X81941Y136343
X94933Y113075
X101626Y113075
X105563Y102051
X78004Y58744
X80367Y49689
X89815Y25280
X102020Y40240
X158713Y35122
X162650Y66618
X168556Y66618
X186272Y92996
X199264Y89453
X203201Y98114
X220918Y92602
X170130Y170555
X195721Y174098
X202020Y191815
X137847Y149295
X107532Y200476
X111469Y206382
X111469Y243783
X58319Y188665
X57532Y181972
X56351Y153232
X183138Y293112
X200839Y296933
T03
X134115Y22094
X153800Y22094
T04
X66921Y52020
X76664Y42276
T05
X104026Y64448
X121826Y64448
X121826Y90048
X104026Y90048
X214022Y27468
X214022Y37468
X214022Y47468
X214022Y57468
X214022Y67468
X246238Y63044
X246238Y53044
X246238Y73044
X246238Y83044
X246238Y93044
X246238Y103044
X267572Y194822
X267572Y204822
X267572Y214822
T06
X146097Y64331
X89847Y247531
X265947Y247496
M30
